<?xml version="1.0" encoding="UTF-8"?>
<svg version="1.1" xmlns="http://www.w3.org/2000/svg" width="512" height="512">
<path d="M0 0 C1.35398758 0.34997309 2.70819454 0.69909842 4.06260681 1.04742432 C6.88598089 1.77630661 9.70704389 2.5133677 12.52661133 3.25683594 C16.11590762 4.2028599 19.70949614 5.13115004 23.30489445 6.05367661 C26.09737968 6.77174927 28.88775758 7.49774388 31.67754936 8.22620392 C33.00091801 8.57107573 34.32481743 8.91391822 35.64927864 9.25457001 C54.4102952 14.09604781 54.4102952 14.09604781 59.27734375 19.328125 C63.58088064 28.83176897 60.73529459 37.40796679 58.15625 46.95703125 C57.77231189 48.42354782 57.38976061 49.89042811 57.00852966 51.35765076 C56.00794544 55.19339973 54.9887596 59.02395839 53.9654541 62.85369873 C52.92194196 66.77251948 51.89632723 70.69601548 50.86914062 74.61914062 C48.85590581 82.29762316 46.82297065 89.9707088 44.77734375 97.640625 C45.71952118 97.64209021 45.71952118 97.64209021 46.68073249 97.64358503 C83.93288543 97.70189495 121.18497775 97.77572038 158.43705861 97.86961128 C162.91295416 97.88087904 167.38885002 97.89201756 171.86474609 97.90307617 C172.75579219 97.90527986 173.64683828 97.90748354 174.56488577 97.909754 C188.98035718 97.94509752 203.39582855 97.96997827 217.81132719 97.99097202 C232.61006213 98.01275755 247.408741 98.04583408 262.20742822 98.08932656 C271.33425759 98.11579588 280.46101713 98.13352599 289.58788297 98.13997104 C295.85199853 98.14523939 302.11602632 98.16150477 308.3800948 98.18629066 C311.99064925 98.20025624 315.60104675 98.20949507 319.21162987 98.20563316 C323.13556788 98.20156358 327.05920628 98.22071447 330.98309326 98.24189758 C332.1115327 98.23705001 333.23997215 98.23220243 334.40260673 98.22720796 C349.55084863 98.36166096 362.60713857 102.90260025 373.7109375 113.390625 C383.10758617 123.6221366 387.43340708 135.86838829 387.25024414 149.68481445 C386.76535777 160.59015858 382.8972039 169.74509058 376.77734375 178.640625 C376.15859375 179.548125 375.53984375 180.455625 374.90234375 181.390625 C368.59178651 188.07239148 360.46754647 192.74389076 351.77734375 195.640625 C352.53354004 195.6499707 353.28973633 195.65931641 354.06884766 195.66894531 C357.51399509 195.722817 360.95780937 195.80643341 364.40234375 195.890625 C365.59214844 195.90480469 366.78195312 195.91898438 368.0078125 195.93359375 C379.21674476 196.24669242 379.21674476 196.24669242 383.77734375 200.640625 C386.88509466 204.7776552 387.21315274 208.34718168 387.18139648 213.36499023 C387.19169136 214.50742691 387.19169136 214.50742691 387.20219421 215.67294312 C387.22044353 218.18189317 387.21662748 220.69021678 387.2109375 223.19921875 C387.21550029 224.94890038 387.22080615 226.69858021 387.2268219 228.44825745 C387.23574938 232.11247038 387.23333414 235.77646531 387.22338867 239.44067383 C387.21190074 244.12937822 387.23210933 248.81732928 387.26130581 253.50593472 C387.27967881 257.1185634 387.27937315 260.73101192 387.27366829 264.34367561 C387.2735152 266.07199218 387.27954919 267.80032105 387.29195976 269.52859306 C387.30688882 271.94849355 387.29617987 274.36700724 387.27905273 276.78686523 C387.2887207 277.4961467 387.29838867 278.20542816 387.30834961 278.936203 C387.23430888 283.94852943 385.87385681 286.75406442 382.77734375 290.640625 C379.86706841 293.36752933 377.42896101 294.1607431 373.52734375 294.828125 C372.18929687 295.06595703 372.18929687 295.06595703 370.82421875 295.30859375 C370.14875 295.41816406 369.47328125 295.52773438 368.77734375 295.640625 C369.95296875 296.7234375 369.95296875 296.7234375 371.15234375 297.828125 C373.77734375 300.640625 373.77734375 300.640625 374.77734375 303.328125 C375.55859375 305.859375 375.55859375 305.859375 378.08984375 306.640625 C378.97671875 306.970625 379.86359375 307.300625 380.77734375 307.640625 C384.41080206 310.86119032 386.60939815 312.97890059 386.92451477 317.97309875 C386.93928108 319.34826912 386.93928108 319.34826912 386.9543457 320.7512207 C386.96718094 321.79272781 386.98001617 322.83423492 386.99324036 323.90730286 C387.00432076 325.59480904 387.00432076 325.59480904 387.015625 327.31640625 C387.02369675 328.47432175 387.03176849 329.63223724 387.04008484 330.82524109 C387.0539223 333.27727766 387.06464596 335.72933347 387.07250977 338.18139648 C387.08972802 341.92794322 387.13361951 345.67360886 387.17773438 349.41992188 C387.18786089 351.80207684 387.19637712 354.18423931 387.203125 356.56640625 C387.22063309 357.68533768 387.23814117 358.8042691 387.25617981 359.95710754 C387.23884938 366.18278688 386.98571995 369.92753207 382.77734375 374.640625 C378.35629112 378.640625 378.35629112 378.640625 375.77734375 378.640625 C375.71546875 379.341875 375.65359375 380.043125 375.58984375 380.765625 C374.48896434 384.66104445 372.59050125 386.7635321 369.77734375 389.640625 C366.03654775 391.52729892 362.97977713 391.89224299 358.81766224 391.89789391 C357.01454774 391.90756724 357.01454774 391.90756724 355.17500669 391.917436 C353.85790588 391.9143388 352.54080507 391.9112416 351.18379211 391.90805054 C349.76766997 391.91178738 348.35154989 391.91638903 346.93543309 391.92178118 C343.04387093 391.93402279 339.15239467 391.93374935 335.26081765 391.93139243 C331.06366087 391.93098455 326.86653174 391.94202077 322.66938782 391.95150757 C314.44569657 391.96812563 306.22203399 391.97361751 297.99832735 391.97473232 C291.31279155 391.97568255 284.62726521 391.97979159 277.94173241 391.98613358 C258.9858152 392.0037493 240.02992066 392.0129721 221.07399521 392.01147263 C219.54088687 392.01135276 219.54088687 392.01135276 217.97680664 392.01123047 C216.95348577 392.01114871 215.9301649 392.01106695 214.87583431 392.01098271 C198.29622841 392.01017003 181.71671342 392.02930217 165.13713381 392.0575072 C148.11215392 392.08624127 131.08721835 392.10004716 114.0622136 392.09831965 C104.50450852 392.09765586 94.9468987 392.10314316 85.38921547 392.12467575 C77.25022915 392.14289456 69.11138125 392.14722925 60.97238336 392.1336569 C56.82124163 392.12713037 52.67036538 392.12699847 48.51924896 392.1443634 C44.71491014 392.16011367 40.91104687 392.15721092 37.10671952 392.13979514 C35.08726471 392.1352833 33.06779504 392.15036736 31.04839784 392.16627443 C20.042773 392.08296936 10.84360287 389.41198862 2.77734375 381.640625 C-6.41815576 370.96467092 -6.71494636 358.58691428 -6.61376953 345.1796875 C-6.59768583 342.64528586 -6.61368716 340.11247837 -6.6328125 337.578125 C-6.64724915 326.41236874 -6.42657759 315.80925216 0.77734375 306.640625 C1.58171875 305.403125 1.58171875 305.403125 2.40234375 304.140625 C5.95456833 300.40144123 10.29454552 298.13011791 14.77734375 295.640625 C13.99230469 295.56585938 13.20726562 295.49109375 12.3984375 295.4140625 C11.34785156 295.28257812 10.29726562 295.15109375 9.21484375 295.015625 C8.18230469 294.89960938 7.14976562 294.78359375 6.0859375 294.6640625 C2.8088586 293.6503734 1.56033297 292.79639847 -0.92944336 290.57666016 C-1.54927597 290.02902008 -2.16910858 289.48138 -2.807724 288.91714478 C-3.50811546 288.28526749 -3.50811546 288.28526749 -4.22265625 287.640625 C-7.45444272 299.1197247 -10.55208413 310.62554752 -13.51815987 322.17604828 C-14.64944099 326.57478855 -15.79144695 330.97075072 -16.93164062 335.3671875 C-18.36845482 340.90889586 -19.80196463 346.45139212 -21.22338867 351.99707031 C-22.38636081 356.53321728 -23.56044116 361.0663595 -24.74201775 365.5976944 C-25.18660946 367.31098223 -25.62715291 369.02532617 -26.06344795 370.74074554 C-26.67180895 373.13049706 -27.29432268 375.51614375 -27.92016602 377.90136719 C-28.0942952 378.59957581 -28.26842438 379.29778442 -28.4478302 380.01715088 C-29.89287879 385.42972037 -32.11713829 389.72651776 -36.28515625 393.515625 C-45.64801853 397.10140204 -56.0278596 393.53907784 -65.26953125 391.0625 C-66.69412562 390.69005491 -68.11895564 390.31851017 -69.54400635 389.94781494 C-72.51131536 389.17279039 -75.47597505 388.38854034 -78.43896484 387.59716797 C-82.21943751 386.58802888 -86.00506575 385.60010253 -89.79282761 384.61872482 C-92.72893596 383.85592812 -95.66233839 383.08312699 -98.59500885 382.30722809 C-99.98960579 381.93928285 -101.38493723 381.57410898 -102.78102875 381.21187592 C-120.02333067 376.72174535 -120.02333067 376.72174535 -123.86766052 371.33607483 C-128.7655182 361.59292259 -123.50642751 348.44282462 -120.859375 338.56640625 C-120.39508183 336.79079179 -119.93210746 335.01483204 -119.47035217 333.23855591 C-118.22634308 328.46752367 -116.96465296 323.70133183 -115.69975281 318.93580246 C-114.36411742 313.89047961 -113.04560548 308.84068623 -111.72558594 303.79125977 C-109.57875598 295.58627197 -107.42337287 287.38358262 -105.26123047 279.18261719 C-102.62638492 269.18657831 -100.01222903 259.18531747 -97.4140625 249.1796875 C-97.22873333 248.46613224 -97.04340416 247.75257698 -96.85245895 247.01739883 C-96.11157532 244.16473902 -95.37077205 241.31205838 -94.63021278 238.45931435 C-93.32445534 233.43003706 -92.01562448 228.40156654 -90.70507812 223.37353516 C-90.51375998 222.63950911 -90.32244183 221.90548306 -90.12532616 221.14921379 C-89.73297961 219.64393086 -89.34063227 218.13864815 -88.94828415 216.63336563 C-84.32306599 198.88644491 -79.71649613 181.13470317 -75.11239624 163.3822937 C-70.51368557 145.65110731 -65.9090357 127.9214689 -61.30117798 110.19265747 C-58.22982612 98.37437432 -55.16358305 86.55478952 -52.10421848 74.73339748 C-50.04147923 66.7645574 -47.97307428 58.79720204 -45.90019131 50.83099461 C-44.69826158 46.21108447 -43.49905414 41.59050908 -42.30673218 36.96810913 C-41.2081438 32.70928764 -40.10226223 28.45243034 -38.99054527 24.19701767 C-38.5884196 22.6524162 -38.18900743 21.10710529 -37.79255104 19.56103897 C-37.2537912 17.46163724 -36.70530055 15.36501484 -36.15429688 13.26879883 C-35.8515686 12.10133621 -35.54884033 10.9338736 -35.23693848 9.73103333 C-33.59835764 4.7384546 -31.173435 1.0975564 -27.22265625 -2.359375 C-18.17252035 -5.37608697 -8.88510292 -2.35252366 0 0 Z " fill="#81D87D" transform="translate(125.22265625,60.359375)"/>
<path d="M0 0 C1.35398758 0.34997309 2.70819454 0.69909842 4.06260681 1.04742432 C6.88598089 1.77630661 9.70704389 2.5133677 12.52661133 3.25683594 C16.11590762 4.2028599 19.70949614 5.13115004 23.30489445 6.05367661 C26.09737968 6.77174927 28.88775758 7.49774388 31.67754936 8.22620392 C33.00091801 8.57107573 34.32481743 8.91391822 35.64927864 9.25457001 C54.4102952 14.09604781 54.4102952 14.09604781 59.27734375 19.328125 C63.47537478 28.59877685 60.92585887 36.7291488 58.40234375 46.11328125 C58.03527759 47.52233111 57.66950026 48.93171728 57.30493164 50.34141541 C56.34178476 54.04965291 55.35946955 57.752556 54.37347412 61.45477295 C53.59039293 64.40822457 52.82127269 67.3652192 52.05285358 70.32251358 C48.30616057 84.73811722 44.41588868 99.09428914 40.17790222 113.37437439 C37.35665948 122.93452592 34.94578064 132.58210813 32.58984375 142.265625 C31.76639828 145.6336493 30.93965439 149.00084136 30.109375 152.3671875 C29.9102652 153.1748053 29.7111554 153.9824231 29.50601196 154.81451416 C28.06423949 160.6109141 26.45223039 166.3452553 24.7800293 172.07958984 C22.76939495 179.22035259 21.04657865 186.43698828 19.27734375 193.640625 C15.08815859 210.69735845 15.08815859 210.69735845 12.80859375 218.515625 C10.19811227 227.48947818 8.01023275 236.56719102 5.77734375 245.640625 C4.92609997 249.09968823 4.07260151 252.55817093 3.21484375 256.015625 C3.00754639 256.85125977 2.80024902 257.68689453 2.58666992 258.54785156 C1.37100586 263.40282285 0.06191495 268.21343567 -1.34765625 273.015625 C-2.58515457 277.24617923 -3.6415437 281.45051167 -4.51586914 285.77001953 C-6.53205274 295.31579173 -8.97762841 304.74755655 -11.40625 314.1953125 C-11.65225512 315.15438633 -11.89826023 316.11346016 -12.15172005 317.10159683 C-13.44997655 322.16261884 -14.75150799 327.22278465 -16.0559082 332.28222656 C-17.39656592 337.48488098 -18.72606693 342.69031962 -20.05308437 347.89646721 C-21.08249872 351.92675275 -22.12003572 355.95491525 -23.15977669 359.98254776 C-23.65355034 361.90100122 -24.14431627 363.82023158 -24.63192558 365.74026108 C-25.31431301 368.42402543 -26.00819034 371.10457418 -26.70483398 373.78466797 C-26.90080673 374.56612686 -27.09677948 375.34758575 -27.2986908 376.15272522 C-28.96884977 382.49767922 -31.02008399 388.49177401 -35.78515625 393.140625 C-45.2539263 397.27245193 -55.77476578 393.60690178 -65.26953125 391.0625 C-66.69412562 390.69005491 -68.11895564 390.31851017 -69.54400635 389.94781494 C-72.51131536 389.17279039 -75.47597505 388.38854034 -78.43896484 387.59716797 C-82.21943751 386.58802888 -86.00506575 385.60010253 -89.79282761 384.61872482 C-92.72893596 383.85592812 -95.66233839 383.08312699 -98.59500885 382.30722809 C-99.98960579 381.93928285 -101.38493723 381.57410898 -102.78102875 381.21187592 C-120.02333067 376.72174535 -120.02333067 376.72174535 -123.86766052 371.33607483 C-128.7655182 361.59292259 -123.50642751 348.44282462 -120.859375 338.56640625 C-120.39508183 336.79079179 -119.93210746 335.01483204 -119.47035217 333.23855591 C-118.22634308 328.46752367 -116.96465296 323.70133183 -115.69975281 318.93580246 C-114.36411742 313.89047961 -113.04560548 308.84068623 -111.72558594 303.79125977 C-109.57875598 295.58627197 -107.42337287 287.38358262 -105.26123047 279.18261719 C-102.62638492 269.18657831 -100.01222903 259.18531747 -97.4140625 249.1796875 C-97.22873333 248.46613224 -97.04340416 247.75257698 -96.85245895 247.01739883 C-96.11157532 244.16473902 -95.37077205 241.31205838 -94.63021278 238.45931435 C-93.32445534 233.43003706 -92.01562448 228.40156654 -90.70507812 223.37353516 C-90.51375998 222.63950911 -90.32244183 221.90548306 -90.12532616 221.14921379 C-89.73297961 219.64393086 -89.34063227 218.13864815 -88.94828415 216.63336563 C-84.32306599 198.88644491 -79.71649613 181.13470317 -75.11239624 163.3822937 C-70.51368557 145.65110731 -65.9090357 127.9214689 -61.30117798 110.19265747 C-58.22982612 98.37437432 -55.16358305 86.55478952 -52.10421848 74.73339748 C-50.04147923 66.7645574 -47.97307428 58.79720204 -45.90019131 50.83099461 C-44.69826158 46.21108447 -43.49905414 41.59050908 -42.30673218 36.96810913 C-41.2081438 32.70928764 -40.10226223 28.45243034 -38.99054527 24.19701767 C-38.5884196 22.6524162 -38.18900743 21.10710529 -37.79255104 19.56103897 C-37.2537912 17.46163724 -36.70530055 15.36501484 -36.15429688 13.26879883 C-35.8515686 12.10133621 -35.54884033 10.9338736 -35.23693848 9.73103333 C-33.59835764 4.7384546 -31.173435 1.0975564 -27.22265625 -2.359375 C-18.17252035 -5.37608697 -8.88510292 -2.35252366 0 0 Z " fill="#FC4E2C" transform="translate(125.22265625,60.359375)"/>
<path d="M0 0 C1.2220781 -0.00445784 2.44415621 -0.00891569 3.70326698 -0.01350862 C5.06658293 -0.01341932 6.42989887 -0.01322946 7.7932148 -0.01294994 C9.23592164 -0.01624859 10.67862755 -0.01997416 12.12133229 -0.02409142 C16.09545341 -0.03411913 20.06955942 -0.03782944 24.0436914 -0.04048073 C28.32598943 -0.04438139 32.60827548 -0.05395976 36.89056587 -0.0626936 C47.23573567 -0.08246267 57.58090645 -0.09252386 67.92609042 -0.10142139 C72.79485589 -0.10580274 77.66362027 -0.11116987 82.53238487 -0.11641026 C98.7112798 -0.13342144 114.89017404 -0.14791712 131.06907654 -0.155159 C135.26822981 -0.15706896 139.46738308 -0.15898928 143.66653633 -0.16094494 C145.232097 -0.16167055 145.232097 -0.16167055 146.82928516 -0.16241082 C163.74865015 -0.17071678 180.66794456 -0.19606373 197.58727871 -0.22852562 C214.94777977 -0.26156319 232.30824491 -0.27960468 249.66877759 -0.28280324 C259.42030153 -0.28497118 269.1717225 -0.29376153 278.92321587 -0.31926441 C287.22524588 -0.34092619 295.52714792 -0.34904413 303.82920299 -0.33929763 C308.06680093 -0.33474002 312.30413454 -0.33672357 316.54169655 -0.35605907 C320.41924282 -0.37359954 324.29633018 -0.37276796 328.17388071 -0.35716178 C329.57831769 -0.35477178 330.9827857 -0.35918098 332.38717507 -0.37099043 C334.29332858 -0.38602933 336.19963819 -0.37409093 338.10580444 -0.36076355 C339.16549655 -0.36174036 340.22518865 -0.36271717 341.31699264 -0.36372358 C344.91644276 0.26258078 346.56132665 1.63468079 349.17874336 4.13422108 C352.17874336 8.47904866 352.17874336 8.47904866 352.17874336 11.13422108 C352.90061836 11.36109608 353.62249336 11.58797108 354.36624336 11.82172108 C357.75559446 13.40341825 359.72121216 15.33536609 362.17874336 18.13422108 C363.17175195 21.11324683 363.32232411 23.13233658 363.35574532 26.24481678 C363.36858055 27.28632389 363.38141579 28.327831 363.39463997 29.40089893 C363.40572037 31.08840511 363.40572037 31.08840511 363.41702461 32.81000233 C363.42509636 33.96791782 363.43316811 35.12583332 363.44148445 36.31883717 C363.45532191 38.77087374 363.46604557 41.22292955 363.47390938 43.67499256 C363.49112763 47.42153929 363.53501912 51.16720494 363.57913399 54.91351795 C363.5892605 57.29567292 363.59777673 59.67783539 363.60452461 62.06000233 C363.6220327 63.17893375 363.63954079 64.29786518 363.65757942 65.45070362 C363.640249 71.67638296 363.38711956 75.42112814 359.17874336 80.13422108 C354.75769073 84.13422108 354.75769073 84.13422108 352.17874336 84.13422108 C352.11686836 84.83547108 352.05499336 85.53672108 351.99124336 86.25922108 C350.89036395 90.15464053 348.99190086 92.25712818 346.17874336 95.13422108 C342.43794736 97.02089499 339.38117674 97.38583906 335.21906185 97.39148998 C333.41594735 97.40116332 333.41594735 97.40116332 331.5764063 97.41103208 C330.25930549 97.40793488 328.94220468 97.40483767 327.58519173 97.40164661 C326.16906959 97.40538345 324.75294951 97.40998511 323.3368327 97.41537726 C319.44527055 97.42761887 315.55379428 97.42734542 311.66221726 97.42498851 C307.46506048 97.42458063 303.26793135 97.43561685 299.07078743 97.44510365 C290.84709618 97.4617217 282.6234336 97.46721358 274.39972696 97.4683284 C267.71419116 97.46927863 261.02866483 97.47338767 254.34313202 97.47972965 C235.38721482 97.49734537 216.43132027 97.50656817 197.47539482 97.5050687 C195.94228648 97.50494884 195.94228648 97.50494884 194.37820625 97.50482655 C193.35488538 97.50474478 192.33156451 97.50466302 191.27723392 97.50457878 C174.69762803 97.50376611 158.11811303 97.52289824 141.53853343 97.55110328 C124.51355354 97.57983734 107.48861797 97.59364324 90.46361321 97.59191573 C80.90590814 97.59125194 71.34829831 97.59673924 61.79061508 97.61827183 C53.65162876 97.63649064 45.51278086 97.64082532 37.37378297 97.62725298 C33.22264124 97.62072645 29.07176499 97.62059454 24.92064857 97.63795948 C21.11630976 97.65370974 17.31244649 97.65080699 13.50811913 97.63339122 C11.48866432 97.62887937 9.46919465 97.64396343 7.44979745 97.65987051 C-3.55582739 97.57656544 -12.75499752 94.9055847 -20.82125664 87.13422108 C-30.01675615 76.458267 -30.31354675 64.08051036 -30.21236992 50.67328358 C-30.19628622 48.13888194 -30.21228754 45.60607445 -30.23141289 43.07172108 C-30.24584954 31.90596481 -30.02517797 21.30284823 -22.82125664 12.13422108 C-22.28500664 11.30922108 -21.74875664 10.48422108 -21.19625664 9.63422108 C-15.45006164 3.58559476 -8.30434791 0.01402055 0 0 Z " fill="#EBDDF6" transform="translate(148.82125663757324,354.86577892303467)"/>
<path d="M0 0 C38.10726276 -0.1374634 76.21448803 -0.243124 114.32194874 -0.30639198 C118.82530998 -0.31389583 123.32867074 -0.3216618 127.83203125 -0.32958984 C129.1767853 -0.33195064 129.1767853 -0.33195064 130.5487061 -0.33435912 C145.04697639 -0.36043614 159.5451033 -0.4077265 174.04328866 -0.46291678 C188.93013068 -0.51911209 203.81689784 -0.55237088 218.70384157 -0.56453097 C227.88303682 -0.5727459 237.06182674 -0.59865059 246.24089716 -0.6474988 C252.54333866 -0.67932113 258.84557195 -0.68877661 265.14808787 -0.68100826 C268.77937771 -0.67718159 272.40996147 -0.68286546 276.04112434 -0.71523285 C308.90460285 -0.9934909 308.90460285 -0.9934909 322.09375 11.77734375 C330.87194922 22.01258014 331.93898592 31.53746361 331.27392578 44.54785156 C330.65053556 50.12836085 328.18468989 54.4859212 325 59 C324.52046875 59.69351563 324.0409375 60.38703125 323.546875 61.1015625 C318.11641672 68.11341797 310.50777547 71.96873735 302 74 C297.5864118 74.41536009 293.19972396 74.39252661 288.76927185 74.36076355 C286.79763198 74.36460846 286.79763198 74.36460846 284.78616101 74.36853105 C281.15789085 74.37520717 277.52988873 74.36328334 273.90165269 74.34819686 C269.98152927 74.335199 266.06142005 74.33962861 262.14128113 74.34190369 C255.35606261 74.34347406 248.57093087 74.33408961 241.78573418 74.31719017 C231.97558449 74.29277263 222.16547662 74.28499208 212.35529984 74.2812262 C196.43760777 74.27466603 180.51996191 74.25471668 164.60229492 74.22631836 C149.14298737 74.19876653 133.68369239 74.17753845 118.22436523 74.16479492 C116.79415412 74.16361267 116.79415412 74.16361267 115.33504986 74.16240653 C110.55158285 74.15849131 105.76811575 74.15470021 100.98464859 74.15097082 C61.32306671 74.11988846 21.66153641 74.06706451 -18 74 C-17.84866283 72.56379478 -17.6949802 71.12783658 -17.54031372 69.69198608 C-17.45498446 68.892311 -17.36965519 68.09263592 -17.28174019 67.26872826 C-16.93746619 64.49644307 -16.33735728 61.86219694 -15.6171875 59.1640625 C-15.34036133 58.11283203 -15.06353516 57.06160156 -14.77832031 55.97851562 C-14.48022461 54.87185547 -14.18212891 53.76519531 -13.875 52.625 C-13.24197963 50.23182581 -12.60917357 47.83859492 -11.9765625 45.4453125 C-11.65075195 44.22102539 -11.32494141 42.99673828 -10.98925781 41.73535156 C-9.3813883 35.66417594 -7.81809088 29.58154663 -6.25 23.5 C-5.69358269 21.34352421 -5.13632821 19.1872642 -4.578125 17.03125 C-4.34512695 16.12955078 -4.11212891 15.22785156 -3.87207031 14.29882812 C-3.07746146 11.29301771 -2.26445051 8.2930731 -1.44549561 5.29382324 C-1.17492718 4.30265251 -0.90435875 3.31148178 -0.62559128 2.29027557 C-0.41914616 1.53448463 -0.21270103 0.7786937 0 0 Z " fill="#EDDEF8" transform="translate(165,171)"/>
<path d="M0 0 C68.31 0 136.62 0 207 0 C207 32.01 207 64.02 207 97 C138.69 97 70.38 97 0 97 C0 64.99 0 32.98 0 0 Z " fill="#2680D9" transform="translate(212,257)"/>
<path d="M0 0 C1.2220781 -0.00445784 2.44415621 -0.00891569 3.70326698 -0.01350862 C5.06658293 -0.01341932 6.42989887 -0.01322946 7.7932148 -0.01294994 C9.23592164 -0.01624859 10.67862755 -0.01997416 12.12133229 -0.02409142 C16.09545341 -0.03411913 20.06955942 -0.03782944 24.0436914 -0.04048073 C28.32598943 -0.04438139 32.60827548 -0.05395976 36.89056587 -0.0626936 C47.23573567 -0.08246267 57.58090645 -0.09252386 67.92609042 -0.10142139 C72.79485589 -0.10580274 77.66362027 -0.11116987 82.53238487 -0.11641026 C98.7112798 -0.13342144 114.89017404 -0.14791712 131.06907654 -0.155159 C135.26822981 -0.15706896 139.46738308 -0.15898928 143.66653633 -0.16094494 C145.232097 -0.16167055 145.232097 -0.16167055 146.82928516 -0.16241082 C163.74865015 -0.17071678 180.66794456 -0.19606373 197.58727871 -0.22852562 C214.94777977 -0.26156319 232.30824491 -0.27960468 249.66877759 -0.28280324 C259.42030153 -0.28497118 269.1717225 -0.29376153 278.92321587 -0.31926441 C287.22524588 -0.34092619 295.52714792 -0.34904413 303.82920299 -0.33929763 C308.06680093 -0.33474002 312.30413454 -0.33672357 316.54169655 -0.35605907 C320.41924282 -0.37359954 324.29633018 -0.37276796 328.17388071 -0.35716178 C329.57831769 -0.35477178 330.9827857 -0.35918098 332.38717507 -0.37099043 C334.29332858 -0.38602933 336.19963819 -0.37409093 338.10580444 -0.36076355 C339.16549655 -0.36174036 340.22518865 -0.36271717 341.31699264 -0.36372358 C344.91644276 0.26258078 346.56132665 1.63468079 349.17874336 4.13422108 C352.17874336 8.47904866 352.17874336 8.47904866 352.17874336 11.13422108 C350.94591181 11.13568764 349.71308025 11.1371542 348.44289017 11.1386652 C319.15634691 11.17439253 289.86991754 11.23067022 260.58346952 11.31214203 C256.97623048 11.32215909 253.36899098 11.33200329 249.76175117 11.34174061 C249.04363612 11.34368198 248.32552106 11.34562335 247.58564495 11.34762356 C235.9688239 11.37861688 224.35202259 11.39561675 212.735168 11.4074153 C200.80891263 11.41984071 188.88276061 11.4473734 176.95657051 11.48883414 C170.26043 11.51168204 163.56444595 11.52713102 156.86826134 11.52610493 C150.56289345 11.52535905 144.25785159 11.54328163 137.95256805 11.57538891 C135.6411513 11.58389269 133.32969799 11.58563462 131.0182724 11.58002377 C127.85532943 11.57336986 124.69341954 11.59133895 121.53058052 11.61523914 C120.6219904 11.60747873 119.71340027 11.59971831 118.77727711 11.59172273 C107.76525494 11.73840624 98.88741327 16.39896955 91.17874336 24.13422108 C83.84713716 33.6774275 82.07157183 43.26366049 83.17874336 55.13422108 C85.54272854 65.87832136 91.47606442 73.83631336 100.57718086 79.84515858 C107.81143678 83.4296998 114.34664985 84.5722565 122.37236214 84.49498463 C123.85397572 84.49882954 123.85397572 84.49882954 125.36552089 84.50275213 C128.65442397 84.50766872 131.94286154 84.491232 135.23172188 84.47479725 C137.59755124 84.47395052 139.96338138 84.47442702 142.32921028 84.47612476 C148.73763325 84.47698434 155.14588723 84.45936439 161.55427098 84.43840289 C167.5772295 84.42009393 173.60020693 84.41853122 179.62318813 84.41544727 C191.54774417 84.40889194 203.47223842 84.3889558 215.39676094 84.36053944 C226.97585937 84.33297503 238.55494098 84.31175313 250.13406563 84.299016 C250.84858006 84.29822783 251.56309448 84.29743966 252.29926086 84.2966276 C255.88400215 84.29271231 259.46874355 84.28892123 263.05348504 84.28519189 C292.76194543 84.25412461 322.47034145 84.20108988 352.17874336 84.13422108 C351.40667324 89.07714826 349.70699738 91.52577947 346.17874336 95.13422108 C342.43794736 97.02089499 339.38117674 97.38583906 335.21906185 97.39148998 C333.41594735 97.40116332 333.41594735 97.40116332 331.5764063 97.41103208 C330.25930549 97.40793488 328.94220468 97.40483767 327.58519173 97.40164661 C326.16906959 97.40538345 324.75294951 97.40998511 323.3368327 97.41537726 C319.44527055 97.42761887 315.55379428 97.42734542 311.66221726 97.42498851 C307.46506048 97.42458063 303.26793135 97.43561685 299.07078743 97.44510365 C290.84709618 97.4617217 282.6234336 97.46721358 274.39972696 97.4683284 C267.71419116 97.46927863 261.02866483 97.47338767 254.34313202 97.47972965 C235.38721482 97.49734537 216.43132027 97.50656817 197.47539482 97.5050687 C195.94228648 97.50494884 195.94228648 97.50494884 194.37820625 97.50482655 C193.35488538 97.50474478 192.33156451 97.50466302 191.27723392 97.50457878 C174.69762803 97.50376611 158.11811303 97.52289824 141.53853343 97.55110328 C124.51355354 97.57983734 107.48861797 97.59364324 90.46361321 97.59191573 C80.90590814 97.59125194 71.34829831 97.59673924 61.79061508 97.61827183 C53.65162876 97.63649064 45.51278086 97.64082532 37.37378297 97.62725298 C33.22264124 97.62072645 29.07176499 97.62059454 24.92064857 97.63795948 C21.11630976 97.65370974 17.31244649 97.65080699 13.50811913 97.63339122 C11.48866432 97.62887937 9.46919465 97.64396343 7.44979745 97.65987051 C-3.55582739 97.57656544 -12.75499752 94.9055847 -20.82125664 87.13422108 C-30.01675615 76.458267 -30.31354675 64.08051036 -30.21236992 50.67328358 C-30.19628622 48.13888194 -30.21228754 45.60607445 -30.23141289 43.07172108 C-30.24584954 31.90596481 -30.02517797 21.30284823 -22.82125664 12.13422108 C-22.28500664 11.30922108 -21.74875664 10.48422108 -21.19625664 9.63422108 C-15.45006164 3.58559476 -8.30434791 0.01402055 0 0 Z " fill="#FEC532" transform="translate(148.82125663757324,354.86577892303467)"/>
<path d="M0 0 C36.32372593 -0.1603908 72.64738953 -0.28365309 108.97139696 -0.35745731 C113.26446053 -0.36621175 117.55752341 -0.37527205 121.85058594 -0.38452148 C123.13253708 -0.38727574 123.13253708 -0.38727574 124.44038622 -0.39008565 C138.25970385 -0.4205049 152.07881664 -0.4756747 165.89801295 -0.54006957 C180.0887635 -0.60564194 194.27940712 -0.64443501 208.47030294 -0.65861946 C217.21964144 -0.66820133 225.96840085 -0.69841054 234.71756099 -0.75541527 C240.72567457 -0.7925553 246.73349089 -0.8035697 252.7417108 -0.79450964 C256.2029972 -0.79004716 259.66327527 -0.79665076 263.12438011 -0.83443832 C291.92557055 -1.10261003 291.92557055 -1.10261003 303.51392555 9.24469852 C311.68747508 17.49496143 314 24.40343811 314 36 C234.14 36 154.28 36 72 36 C72 30.66666667 72 25.33333333 72 20 C71.3634549 20.02744293 70.72690979 20.05488586 70.07107544 20.0831604 C63.35295835 20.35430724 56.64065205 20.49353337 49.91748047 20.56152344 C47.42062357 20.60331453 44.92406438 20.67704213 42.42919922 20.78515625 C20.61817487 21.69504254 20.61817487 21.69504254 12.22558594 14.91699219 C7.70252595 10.67830261 3.53583519 6.10159131 0 1 C0 0.67 0 0.34 0 0 Z " fill="#F8F6FB" transform="translate(182,172)"/>
<path d="M0 0 C2.55520723 -0.00486071 5.11041066 -0.01230408 7.66560364 -0.02212524 C13.86219164 -0.03893449 20.05818563 -0.02798299 26.25473165 -0.00359936 C33.47585642 0.02375052 40.69687174 0.02035567 47.91803516 0.01613398 C60.80027038 0.00976797 73.68228368 0.03301628 86.56445312 0.07226562 C99.05898789 0.11032374 111.55326298 0.12442464 124.04785156 0.11328125 C137.67157106 0.1011667 151.29517668 0.10151357 164.91888672 0.12425292 C166.37106041 0.12666742 167.8232341 0.12907939 169.27540779 0.1314888 C169.98983305 0.13269588 170.7042583 0.13390295 171.44033281 0.13514661 C176.4725838 0.14290215 181.50479235 0.14211899 186.53704643 0.13831711 C193.30466444 0.13363116 200.07190045 0.15072263 206.83946037 0.1824379 C209.32553221 0.19093687 211.81163789 0.19261579 214.29771805 0.1870575 C217.68508923 0.18063177 221.07145701 0.19872961 224.45872498 0.22323608 C225.94207034 0.21189811 225.94207034 0.21189811 227.45538229 0.20033109 C231.73990404 0.25535669 234.17482692 0.32920218 237.8860178 2.61315346 C242.84985352 8.00071917 242.84985352 8.00071917 242.84985352 11.74462891 C241.61702196 11.74609547 240.38419041 11.74756203 239.11400032 11.74907303 C209.82745706 11.78480036 180.5410277 11.84107805 151.25457967 11.92254986 C147.64734063 11.93256692 144.04010114 11.94241112 140.43286133 11.95214844 C139.71474627 11.95408981 138.99663122 11.95603118 138.2567551 11.95803139 C126.63993405 11.98902471 115.02313274 12.00602458 103.40627815 12.01782313 C91.48002278 12.03024854 79.55387076 12.05778123 67.62768066 12.09924197 C60.93154015 12.12208987 54.2355561 12.13753885 47.53937149 12.13651276 C41.2340036 12.13576688 34.92896174 12.15368946 28.62367821 12.18579674 C26.31226145 12.19430052 24.00080814 12.19604245 21.68938255 12.19043159 C18.52643958 12.18377769 15.3645297 12.20174678 12.20169067 12.22564697 C11.29310055 12.21788656 10.38451042 12.21012614 9.44838727 12.20213056 C-1.56363491 12.34881407 -10.44147658 17.00937738 -18.15014648 24.74462891 C-25.48175269 34.28783533 -27.25731801 43.87406832 -26.15014648 55.74462891 C-23.78616131 66.48872919 -17.85282543 74.44672119 -8.75170898 80.45556641 C-1.51745307 84.04010763 5.01776001 85.18266433 13.04347229 85.10539246 C14.52508588 85.10923737 14.52508588 85.10923737 16.03663105 85.11315995 C19.32553412 85.11807655 22.61397169 85.10163983 25.90283203 85.08520508 C28.26866139 85.08435835 30.63449153 85.08483484 33.00032043 85.08653259 C39.4087434 85.08739217 45.81699739 85.06977222 52.22538114 85.04881072 C58.24833965 85.03050176 64.27131708 85.02893905 70.29429828 85.0258551 C82.21885433 85.01929977 94.14334857 84.99936362 106.06787109 84.97094727 C117.64696953 84.94338286 129.22605114 84.92216096 140.80517578 84.90942383 C141.51969021 84.90863566 142.23420464 84.90784749 142.97037102 84.90703543 C146.5551123 84.90312014 150.13985371 84.89932906 153.72459519 84.89559972 C183.43305558 84.86453244 213.1414516 84.81149771 242.84985352 84.74462891 C242.07778339 89.68755609 240.37810754 92.13618729 236.84985352 95.74462891 C232.08356987 98.45613805 227.01036407 98.03209986 221.68650818 98.01878357 C220.65348054 98.02402025 219.62045291 98.02925693 218.55612141 98.03465229 C215.0894586 98.04967161 211.62294314 98.05035789 208.15625 98.05102539 C205.67254893 98.05864573 203.18885023 98.06707301 200.70515442 98.07624817 C193.95278322 98.09821633 187.20047138 98.10701749 180.44807315 98.11207461 C176.22821063 98.11533446 172.0083572 98.1218588 167.78849983 98.129076 C156.09516284 98.14864224 144.4018343 98.16504551 132.70847988 98.16795254 C131.58636152 98.16823389 131.58636152 98.16823389 130.4415741 98.16852093 C128.92514583 98.16888717 127.40871755 98.16925087 125.89228927 98.16961204 C125.13957209 98.16979485 124.38685492 98.16997766 123.61132812 98.17016602 C122.85768721 98.17034656 122.10404629 98.17052711 121.32756776 98.17071313 C109.12711109 98.17425166 96.92683128 98.20125369 84.72643589 98.2386639 C72.18759261 98.27680269 59.64883693 98.29611043 47.10993439 98.29641205 C40.07505193 98.29699548 33.04038029 98.30541281 26.00555229 98.33440971 C19.38415553 98.36157755 12.76310222 98.36278108 6.14164543 98.34675407 C3.71654857 98.34494142 1.29142763 98.35161356 -1.1336174 98.36757278 C-28.99527449 98.53969201 -28.99527449 98.53969201 -40.53686523 87.42822266 C-48.60786652 79.00545861 -49.62084773 71.16452728 -49.83764648 59.86962891 C-49.86745605 58.67378174 -49.89726562 57.47793457 -49.92797852 56.24584961 C-49.98438394 53.84958611 -50.03464047 51.45316898 -50.07836914 49.05664062 C-50.14049666 46.18989941 -50.24764903 43.3313885 -50.38061523 40.46728516 C-50.7765131 30.10126893 -50.02083903 20.10015151 -43.45874023 11.53759766 C-41.47736652 9.63895354 -39.43846284 8.25774184 -37.15014648 6.74462891 C-36.43267211 6.22346308 -35.71519773 5.70229725 -34.97598171 5.16533852 C-24.27053787 -1.43933416 -12.14591889 -0.08088844 0 0 Z " fill="#FEC337" transform="translate(258.150146484375,354.25537109375)"/>
<path d="M0 0 C99.33 0 198.66 0 301 0 C301 0.33 301 0.66 301 1 C160.915 1.495 160.915 1.495 18 2 C30.11190858 16.87323702 30.11190858 16.87323702 45.1078949 21.02720642 C46.19506302 20.95506424 47.28223114 20.88292206 48.40234375 20.80859375 C49.57213272 20.80199234 50.74192169 20.79539093 51.94715881 20.78858948 C55.61738453 20.75169591 59.27084639 20.59866892 62.9375 20.4375 C66.65441879 20.35695354 70.37111465 20.30008079 74.08851624 20.24708557 C76.38494188 20.20544301 78.68110327 20.14279721 80.9763031 20.05699158 C82.00240189 20.02199051 83.02850067 19.98698944 84.08569336 19.95092773 C85.4410746 19.89400002 85.4410746 19.89400002 86.82383728 19.83592224 C89 20 89 20 91 22 C90.505 22.495 90.505 22.495 90 23 C89.67 27.62 89.34 32.24 89 37 C168.86 37 248.72 37 331 37 C331 37.33 331 37.66 331 38 C251.47 38.33 171.94 38.66 90 39 C89.67 50.55 89.34 62.1 89 74 C53.69 74 18.38 74 -18 74 C-16.87528345 63.87755102 -16.87528345 63.87755102 -15.6171875 59.1640625 C-15.34036133 58.11283203 -15.06353516 57.06160156 -14.77832031 55.97851562 C-14.48022461 54.87185547 -14.18212891 53.76519531 -13.875 52.625 C-13.24197963 50.23182581 -12.60917357 47.83859492 -11.9765625 45.4453125 C-11.65075195 44.22102539 -11.32494141 42.99673828 -10.98925781 41.73535156 C-9.3813883 35.66417594 -7.81809088 29.58154663 -6.25 23.5 C-5.69358269 21.34352421 -5.13632821 19.1872642 -4.578125 17.03125 C-4.34512695 16.12955078 -4.11212891 15.22785156 -3.87207031 14.29882812 C-2.61004161 9.52488303 -1.29925841 4.76394751 0 0 Z " fill="#DECFEE" transform="translate(165,171)"/>
<path d="M0 0 C1.48979457 -0.00679667 1.48979457 -0.00679667 3.00968599 -0.01373065 C6.33524007 -0.0263835 9.66063058 -0.0247537 12.98620605 -0.02310181 C15.37141633 -0.02908637 17.75662466 -0.03589175 20.14183044 -0.04345703 C25.94633749 -0.0592934 31.75079496 -0.06556556 37.55532253 -0.06668179 C42.27338353 -0.06763299 46.99143115 -0.07174688 51.70948792 -0.07808304 C65.09067124 -0.09568738 78.47182252 -0.10492283 91.85301751 -0.10342209 C92.57388867 -0.10334218 93.29475984 -0.10326227 94.03747559 -0.10317993 C94.7592281 -0.10309817 95.48098062 -0.10301641 96.22460443 -0.10293217 C107.92787099 -0.10211884 119.63100899 -0.12127029 131.33423835 -0.14945666 C143.35553837 -0.17818044 155.37677566 -0.19199734 167.39811087 -0.19026911 C174.14547249 -0.18960518 180.89269921 -0.19509937 187.64002991 -0.21662521 C193.98317554 -0.23595396 200.32603581 -0.23616864 206.66919136 -0.22159195 C208.99843829 -0.21949631 211.32770284 -0.22424944 213.65691948 -0.23631287 C216.83403615 -0.25170351 220.0101612 -0.24249753 223.18725586 -0.22705078 C224.11118653 -0.23733791 225.0351172 -0.24762503 225.98704576 -0.25822389 C231.51267868 -0.19876227 234.73168854 0.54262228 239.09362793 4.26742554 C243.09732068 9.87259539 242.09362793 12.57618415 242.09362793 20.26742554 C151.01362793 20.26742554 59.93362793 20.26742554 -33.90637207 20.26742554 C-30.23327421 11.08468089 -24.4824661 6.88257739 -15.90637207 2.26742554 C-10.55249765 0.01016285 -5.70897052 -0.01913763 0 0 Z " fill="#F8F5FA" transform="translate(269.9063720703125,365.7325744628906)"/>
<path d="M0 0 C1.35398758 0.34997309 2.70819454 0.69909842 4.06260681 1.04742432 C6.88598089 1.77630661 9.70704389 2.5133677 12.52661133 3.25683594 C16.11590762 4.2028599 19.70949614 5.13115004 23.30489445 6.05367661 C26.09737968 6.77174927 28.88775758 7.49774388 31.67754936 8.22620392 C33.00091801 8.57107573 34.32481743 8.91391822 35.64927864 9.25457001 C54.4102952 14.09604781 54.4102952 14.09604781 59.27734375 19.328125 C62.44692516 26.32761729 62.00049336 32.72909644 59.90625 39.95703125 C59.60448097 41.06992775 59.60448097 41.06992775 59.2966156 42.20530701 C58.65926718 44.54232319 58.00005333 46.87247657 57.33984375 49.203125 C56.90022338 50.79972636 56.46205888 52.39672934 56.02539062 53.99414062 C54.95946077 57.88114206 53.87389579 61.76215636 52.77734375 65.640625 C48.00596128 64.4553239 43.2351822 63.26761963 38.46484375 62.078125 C37.74505341 61.89866333 37.02526306 61.71920166 36.28366089 61.53430176 C25.16838604 58.76068704 14.07444504 55.91464863 2.99145508 53.0144043 C-3.26962111 51.38307369 -9.54058131 49.83339675 -15.84765625 48.390625 C-20.70680446 47.27783857 -25.45386685 46.04389886 -30.15234375 44.3671875 C-34.12656501 42.97246079 -38.18304909 41.82973692 -42.22265625 40.640625 C-41.60377428 33.55487493 -39.91025182 26.83479875 -38.05883789 19.9765625 C-37.70941141 18.66812729 -37.36924181 17.3571852 -37.03833008 16.04394531 C-33.59094014 2.36355576 -33.59094014 2.36355576 -27.22265625 -2.359375 C-18.17252035 -5.37608697 -8.88510292 -2.35252366 0 0 Z " fill="#FC572D" transform="translate(125.22265625,60.359375)"/>
<path d="M0 0 C0.93030029 0.23509277 1.86060059 0.47018555 2.8190918 0.71240234 C9.49894904 2.39822266 16.18548016 4.04937196 22.88671875 5.6484375 C45.80856184 11.12043531 45.80856184 11.12043531 56.14892578 14.07910156 C64.32046461 16.40838088 72.55633961 18.49093711 80.78955078 20.58984375 C81.89540527 20.8734375 83.00125977 21.15703125 84.140625 21.44921875 C85.12579102 21.70018311 86.11095703 21.95114746 87.12597656 22.2097168 C90.12506017 23.03438836 93.05821484 23.99131782 96 25 C94.80653914 29.87851956 93.5975907 34.75284477 92.37451172 39.62402344 C91.96111453 41.27955152 91.55187166 42.936123 91.14697266 44.59375 C90.56217215 46.98467886 89.96223076 49.37138073 89.359375 51.7578125 C89.18315613 52.49242706 89.00693726 53.22704163 88.82537842 53.98391724 C87.40145104 59.52712575 85.2591284 63.94624691 80.9375 67.875 C71.57463772 71.46077704 61.19479665 67.89845284 51.953125 65.421875 C50.52853063 65.04942991 49.10370061 64.67788517 47.6786499 64.30718994 C44.71134089 63.53216539 41.7466812 62.74791534 38.78369141 61.95654297 C35.00321874 60.94740388 31.2175905 59.95947753 27.42982864 58.97809982 C24.49372029 58.21530312 21.56031786 57.44250199 18.6276474 56.66660309 C17.23305046 56.29865785 15.83771902 55.93348398 14.4416275 55.57125092 C-2.50644143 51.15774263 -2.50644143 51.15774263 -6.91015625 45.58105469 C-11.00456949 35.88433947 -6.67123607 24.38841135 -4 14.75 C-3.61321575 13.31156495 -3.22778996 11.87276391 -2.84375 10.43359375 C-1.91141834 6.95138007 -0.96093495 3.47444432 0 0 Z " fill="#FB4B2C" transform="translate(8,386)"/>
<path d="M0 0 C40 0 40 0 46 4 C49.2654024 8.00239073 49.43559812 11.73987734 49.40405273 16.72436523 C49.41091599 17.48598969 49.41777924 18.24761414 49.42485046 19.03231812 C49.44309978 21.54126817 49.43928373 24.04959178 49.43359375 26.55859375 C49.43815654 28.30827538 49.4434624 30.05795521 49.44947815 31.80763245 C49.45840563 35.47184538 49.45599039 39.13584031 49.44604492 42.80004883 C49.43455699 47.48875322 49.45476558 52.17670428 49.48396206 56.86530972 C49.50233506 60.4779384 49.5020294 64.09038692 49.49632454 67.70305061 C49.49617145 69.43136718 49.50220544 71.15969605 49.51461601 72.88796806 C49.52954507 75.30786855 49.51883612 77.72638224 49.50170898 80.14624023 C49.51137695 80.8555217 49.52104492 81.56480316 49.53100586 82.295578 C49.45697589 87.30717561 48.10442898 90.11874675 45 94 C33.00587681 104.54029007 14.46079591 97.38054726 0 97 C0 64.99 0 32.98 0 0 Z " fill="#2087D5" transform="translate(463,257)"/>
<path d="M0 0 C6.1112924 1.0388092 12.07704464 2.15730278 18 4 C17.3791487 10.77292329 15.72019696 16.98411322 13.8125 23.5 C11.05136356 33.12365596 8.48765282 42.773524 6.13012695 52.50390625 C4.89479105 57.56533331 3.56069609 62.5790129 2.10546875 67.58203125 C-0.3263686 75.99886816 -2.41072543 84.49328615 -4.5 93 C-8.68918516 110.05673345 -8.68918516 110.05673345 -10.96875 117.875 C-13.57923148 126.84885318 -15.767111 135.92656602 -18 145 C-20.53392936 155.29672354 -23.09483241 165.56048534 -26.06201172 175.7421875 C-27.66269212 181.30165634 -29.11388558 186.89931119 -30.5625 192.5 C-30.86841064 193.68053955 -31.17432129 194.8610791 -31.48950195 196.07739258 C-33.2562559 202.95031693 -34.90213283 209.81465817 -36.3125 216.76953125 C-37.6860584 223.22369485 -39.36464934 229.60802027 -41 236 C-41.495 235.01 -41.495 235.01 -42 234 C-44.86291691 233.19709393 -47.66231937 232.50435223 -50.5625 231.875 C-52.02434341 231.55108754 -53.48603863 231.22650589 -54.94761658 230.90139771 C-56.08624602 230.64818095 -56.08624602 230.64818095 -57.24787807 230.38984871 C-58.11517843 230.1968736 -58.11517843 230.1968736 -59 230 C-56.13637961 216.61783628 -52.85334144 203.37340459 -49.3984375 190.1328125 C-48.84668712 188.00864615 -48.29521707 185.88440698 -47.7440033 183.76010132 C-46.26471695 178.06230478 -44.78158185 172.36551671 -43.29770279 166.66891479 C-41.74458502 160.70370356 -40.1951196 154.73754375 -38.64526367 148.77148438 C-35.74290331 137.60124839 -32.83740433 126.43183149 -29.93065357 115.26273727 C-26.41854564 101.76699833 -22.91038176 88.27023483 -19.40234375 74.7734375 C-15.90720964 61.32669357 -12.41171737 47.88004353 -8.91357422 34.43408203 C-8.3811489 32.38742076 -7.84872396 30.34075938 -7.31629944 28.2940979 C-6.33184055 24.50984289 -5.34713645 20.72565181 -4.36228943 16.9414978 C-3.92682037 15.26764141 -3.49135945 13.5937829 -3.0559082 11.91992188 C-2.86030996 11.16865587 -2.66471172 10.41738987 -2.46318626 9.64335823 C-1.62803662 6.43233584 -0.79514235 3.22119687 0 0 Z " fill="#F93B21" transform="translate(156,134)"/>
<path d="M0 0 C2.96594966 5.15138625 2 8.35820894 2 15 C-77.86 15 -157.72 15 -240 15 C-240 9.33333333 -240 3.66666667 -240 -2 C-209.85875883 -2.19586271 -179.71745558 -2.37637677 -149.57599793 -2.53537826 C-146.01982158 -2.5541513 -142.46364593 -2.5730556 -138.9074707 -2.59204102 C-138.19948193 -2.59581856 -137.49149316 -2.59959611 -136.76205019 -2.60348812 C-125.28916617 -2.66501609 -113.81637239 -2.73718365 -102.34357669 -2.8132638 C-90.5767929 -2.89105738 -78.80998485 -2.95746232 -67.04307586 -3.01323253 C-60.43151386 -3.04506561 -53.82007739 -3.08224798 -47.20862389 -3.13199425 C-40.99125386 -3.1786097 -34.77397057 -3.21123118 -28.55646515 -3.2329216 C-26.26947608 -3.24340312 -23.98250429 -3.25908443 -21.69558907 -3.28024101 C-18.58300282 -3.30827343 -15.47089581 -3.317923 -12.35820007 -3.32279968 C-10.98807574 -3.34174389 -10.98807574 -3.34174389 -9.59027213 -3.36107081 C-8.34296528 -3.35733619 -8.34296528 -3.35733619 -7.07046032 -3.35352612 C-5.99224444 -3.3597915 -5.99224444 -3.3597915 -4.89224643 -3.36618346 C-2.42830647 -2.8893671 -1.57189949 -1.91371156 0 0 Z " fill="#EEE6F7" transform="translate(494,193)"/>
<path d="M0 0 C67.98 0 135.96 0 206 0 C206 5.94 206 11.88 206 18 C138.02 18 70.04 18 0 18 C0 12.06 0 6.12 0 0 Z " fill="#1675CB" transform="translate(213,336)"/>
<path d="M0 0 C8.25 0 16.5 0 25 0 C25 32.01 25 64.02 25 97 C-12.5432526 98.87716263 -12.5432526 98.87716263 -20.375 93.3125 C-22.72269968 89.97154277 -22.39032444 86.91762887 -22 83 C-21.16806728 78.84292236 -20.06065024 74.77425675 -18.9375 70.6875 C-18.29010481 68.26439231 -17.64297681 65.84121321 -16.99609375 63.41796875 C-16.66335449 62.18481934 -16.33061523 60.95166992 -15.98779297 59.68115234 C-14.45364974 53.9639473 -12.97838005 48.23182457 -11.5 42.5 C-10.92472091 40.28248935 -10.3491985 38.06504182 -9.7734375 35.84765625 C-8.5224488 31.02371494 -7.27896386 26.19789634 -6.0390625 21.37109375 C-5.55856445 19.50517578 -5.55856445 19.50517578 -5.06835938 17.6015625 C-4.45063751 15.20229498 -3.83468399 12.80257132 -3.22070312 10.40234375 C-2.94419922 9.32984375 -2.66769531 8.25734375 -2.3828125 7.15234375 C-2.13934082 6.20351318 -1.89586914 5.25468262 -1.64501953 4.27709961 C-1 2 -1 2 0 0 Z " fill="#1B78CE" transform="translate(143,257)"/>
<path d="M0 0 C5.51039801 1.3286689 11.01977086 2.66149054 16.52832031 3.99780273 C18.39361874 4.44972967 20.25917002 4.90061449 22.125 5.3503418 C32.30152735 7.80400343 42.43357264 10.34685704 52.50720215 13.1953125 C57.52362284 14.60806489 62.55646728 15.92341456 67.6171875 17.16796875 C68.30448944 17.33703232 68.99179138 17.50609589 69.69992065 17.68028259 C72.47073349 18.35929804 75.24249179 19.03431555 78.01513672 19.70581055 C80.09184862 20.20992441 82.16706887 20.71984251 84.2421875 21.23046875 C85.4472998 21.52332764 86.65241211 21.81618652 87.89404297 22.11791992 C90.50030476 22.85808844 92.65163756 23.67609341 95 25 C94.36617071 31.7394507 92.77702547 37.99550621 90.9375 44.5 C90.51500977 46.01980469 90.51500977 46.01980469 90.08398438 47.5703125 C89.39434817 50.04832734 88.69958811 52.52478 88 55 C81.97732201 53.68826555 75.98412217 52.28586773 70.00390625 50.79296875 C69.17148911 50.58569656 68.33907196 50.37842438 67.48143005 50.16487122 C65.72745679 49.7276355 63.97363896 49.28977583 62.2199707 48.85131836 C59.60105707 48.1971313 56.98122791 47.5467091 54.36132812 46.89648438 C45.34653431 44.65006895 36.37169992 42.30299639 27.42863464 39.78601074 C20.27778772 37.77957376 13.08638432 35.96484336 5.875 34.1875 C4.62074219 33.87619141 3.36648437 33.56488281 2.07421875 33.24414062 C-0.94997629 32.49386323 -3.97470264 31.74581759 -7 31 C-6.41664564 23.85944731 -4.89994809 17.31745142 -2.9375 10.4375 C-2.65583984 9.42880859 -2.37417969 8.42011719 -2.08398438 7.38085938 C-1.39552851 4.91875452 -0.70077279 2.45862184 0 0 Z " fill="#FB4E2E" transform="translate(16,356)"/>
<path d="M0 0 C99.33 0 198.66 0 301 0 C301 0.33 301 0.66 301 1 C160.915 1.495 160.915 1.495 18 2 C30.11190858 16.87323702 30.11190858 16.87323702 45.1078949 21.02720642 C46.19506302 20.95506424 47.28223114 20.88292206 48.40234375 20.80859375 C49.57213272 20.80199234 50.74192169 20.79539093 51.94715881 20.78858948 C55.61738453 20.75169591 59.27084639 20.59866892 62.9375 20.4375 C66.65441879 20.35695354 70.37111465 20.30008079 74.08851624 20.24708557 C76.38494188 20.20544301 78.68110327 20.14279721 80.9763031 20.05699158 C82.00240189 20.02199051 83.02850067 19.98698944 84.08569336 19.95092773 C85.4410746 19.89400002 85.4410746 19.89400002 86.82383728 19.83592224 C89 20 89 20 91 22 C90.505 22.495 90.505 22.495 90 23 C89.76472227 25.34987262 89.58613583 27.70556039 89.4375 30.0625 C89.31181641 31.99802734 89.31181641 31.99802734 89.18359375 33.97265625 C89.12300781 34.97167969 89.06242187 35.97070312 89 37 C82.89242238 37.76689256 76.9596079 38.14117463 70.80834961 38.11352539 C69.93896759 38.11367142 69.06958557 38.11381744 68.17385864 38.1139679 C65.33332726 38.11327767 62.49286351 38.10552741 59.65234375 38.09765625 C57.66980526 38.0957889 55.6872663 38.0943665 53.70472717 38.09336853 C48.5114716 38.08956829 43.31824443 38.07975952 38.125 38.06866455 C32.81575912 38.0583966 27.5065136 38.05385942 22.19726562 38.04882812 C11.79816467 38.03813481 1.39908471 38.02108863 -9 38 C-7.93208779 29.21077345 -7.93208779 29.21077345 -6.9140625 25.44921875 C-6.70523438 24.66740234 -6.49640625 23.88558594 -6.28125 23.08007812 C-6.0646875 22.29052734 -5.848125 21.50097656 -5.625 20.6875 C-5.31175781 19.52057617 -5.31175781 19.52057617 -4.9921875 18.33007812 C-4.33429638 15.88504984 -3.66702678 13.4425518 -3 11 C-2.01 7.37 -1.02 3.74 0 0 Z " fill="#D7CAE8" transform="translate(165,171)"/>
<path d="M0 0 C5.61 0 11.22 0 17 0 C17 32.01 17 64.02 17 97 C11.39 97 5.78 97 0 97 C0 64.99 0 32.98 0 0 Z " fill="#1D7AD1" transform="translate(182,257)"/>
<path d="M0 0 C5.61 0 11.22 0 17 0 C17 32.01 17 64.02 17 97 C11.39 97 5.78 97 0 97 C0 64.99 0 32.98 0 0 Z " fill="#1E83D5" transform="translate(433,257)"/>
<path d="M0 0 C0.74958984 0.00451172 1.49917969 0.00902344 2.27148438 0.01367188 C4.11852383 0.02543646 5.96552213 0.04337135 7.8125 0.0625 C6.02041491 1.2572234 4.19804633 2.41072256 2.32421875 3.47265625 C-5.9776453 8.32976343 -10.7117262 13.42997465 -14 22.5 C-16.00760757 30.17614659 -15.97891183 38.17696023 -16.1875 46.0625 C-16.22004883 46.94566895 -16.25259766 47.82883789 -16.28613281 48.73876953 C-16.77833708 62.65721251 -16.68838387 74.9012376 -7.24609375 86.08984375 C-2.18151869 90.94299442 4.0358314 94.27916616 10.8125 96.0625 C10.8125 96.3925 10.8125 96.7225 10.8125 97.0625 C-1.62107759 97.6178459 -11.2866445 96.9615499 -21.37109375 88.8125 C-29.43034712 81.047886 -32.19959804 71.40593551 -32.54652405 60.46687317 C-32.60044081 57.17774171 -32.60343684 53.89100163 -32.57861328 50.6015625 C-32.56252958 48.06716086 -32.57853091 45.53435337 -32.59765625 43 C-32.6120929 31.83424374 -32.39142134 21.23112716 -25.1875 12.0625 C-24.65125 11.2375 -24.115 10.4125 -23.5625 9.5625 C-16.91824215 2.56854437 -9.42025901 -0.10695491 0 0 Z " fill="#FEC532" transform="translate(151.1875,354.9375)"/>
<path d="M0 0 C5.38938948 0.80531107 10.64390843 2.04043361 15.9375 3.3125 C17.33911377 3.64797852 17.33911377 3.64797852 18.76904297 3.99023438 C25.28071819 5.55974373 31.75829378 7.22184956 38.22265625 8.9765625 C41.70700778 9.92061638 45.19641872 10.84134424 48.68896484 11.75439453 C59.25860802 14.5180268 69.79963366 17.38269059 80.3359375 20.27050781 C84.88960104 21.51742374 89.4448367 22.75857606 94 24 C93.125 33.625 93.125 33.625 92 37 C85.97732201 35.68826555 79.98412217 34.28586773 74.00390625 32.79296875 C73.17148911 32.58569656 72.33907196 32.37842438 71.48143005 32.16487122 C69.72745679 31.7276355 67.97363896 31.28977583 66.2199707 30.85131836 C63.60105707 30.1971313 60.98122791 29.5467091 58.36132812 28.89648438 C49.34653431 26.65006895 40.37169992 24.30299639 31.42863464 21.78601074 C24.27778772 19.77957376 17.08638432 17.96484336 9.875 16.1875 C8.62074219 15.87619141 7.36648437 15.56488281 6.07421875 15.24414062 C3.05002371 14.49386323 0.02529736 13.74581759 -3 13 C-2.88490339 11.58249437 -2.75746342 10.16598831 -2.625 8.75 C-2.55539062 7.96109375 -2.48578125 7.1721875 -2.4140625 6.359375 C-1.98492887 3.914123 -1.21399362 2.15163097 0 0 Z " fill="#F3E2F5" transform="translate(12,374)"/>
<path d="M0 0 C1.64730684 0.26172165 3.29277835 0.53499552 4.9375 0.8125 C6.31228516 1.03873047 6.31228516 1.03873047 7.71484375 1.26953125 C10.23062979 1.8289272 12.45607987 2.47304513 14.87109375 3.3203125 C21.08679216 5.44872812 27.46619967 6.93981732 33.84140015 8.50216675 C37.80152993 9.47387481 41.7578014 10.46112247 45.71484375 11.4453125 C47.39956635 11.86364895 49.0842996 12.28194252 50.76904297 12.70019531 C58.87047653 14.71280539 66.9708787 16.7289175 75.06365967 18.77609253 C76.81179234 19.21675502 78.56069811 19.65436191 80.31036377 20.08889771 C82.75445997 20.69623501 85.1957928 21.31365723 87.63671875 21.93359375 C88.37040176 22.11344818 89.10408478 22.29330261 89.86000061 22.47860718 C91.59043911 22.92388779 93.29868255 23.45391288 95 24 C96.49341969 26.98683937 95.40648676 28.95160978 94.5625 32.125 C94.13130859 33.76855469 94.13130859 33.76855469 93.69140625 35.4453125 C93.46324219 36.28835937 93.23507813 37.13140625 93 38 C91.74155273 37.66266846 90.48310547 37.32533691 89.18652344 36.9777832 C84.4156499 35.69941313 79.64418486 34.42326236 74.87255859 33.14770508 C72.82650388 32.60043743 70.78059973 32.05260653 68.73486328 31.50415039 C57.35926299 28.45481871 45.97784667 25.44713857 34.54022217 22.63789368 C28.80646531 21.22544745 23.14470536 19.63762269 17.4765625 17.98046875 C11.02560592 16.16115403 4.51071085 14.5896281 -2 13 C-1.85769192 11.58297487 -1.71099254 10.1663904 -1.5625 8.75 C-1.48128906 7.96109375 -1.40007812 7.1721875 -1.31640625 6.359375 C-1.02365007 4.17635361 -0.57935581 2.1226818 0 0 Z " fill="#F5C9C8" transform="translate(82,101)"/>
<path d="M0 0 C1.21538405 0.00138269 1.21538405 0.00138269 2.45532131 0.00279331 C3.38225292 0.00141865 4.30918453 0.00004398 5.26420498 -0.00137234 C6.80168392 0.00402058 6.80168392 0.00402058 8.37022305 0.00952244 C9.97978123 0.0093034 9.97978123 0.0093034 11.62185574 0.00907993 C15.18765656 0.00977959 18.75340589 0.01757445 22.31919765 0.02539158 C24.78399534 0.02725557 27.24879339 0.02867956 29.71359158 0.0296793 C36.21558045 0.03350596 42.71754716 0.0433375 49.21952724 0.05438328 C55.84844957 0.06513035 62.47737833 0.06917624 69.10630703 0.0742197 C82.12389464 0.08495964 95.14146685 0.10184686 108.1590414 0.12304783 C108.83833706 1.56285007 108.83833706 1.56285007 109.53135586 3.03173923 C111.2538695 6.30314583 112.04285543 7.08991938 115.3465414 8.49804783 C116.06197109 8.8151572 116.77740078 9.13226658 117.51451015 9.45898533 C118.05720547 9.67812595 118.59990078 9.89726658 119.1590414 10.12304783 C119.1590414 10.45304783 119.1590414 10.78304783 119.1590414 11.12304783 C78.2390414 11.12304783 37.3190414 11.12304783 -4.8409586 11.12304783 C-2.65179773 0.1772435 -2.65179773 0.1772435 0 0 Z " fill="#37A966" transform="translate(147.84095859527588,245.87695217132568)"/>
<path d="M0 0 C8.16642591 0.99926731 15.91452713 2.98345846 23.81958008 5.18945312 C33.3641601 7.84702188 42.93942296 10.38092372 52.52313232 12.89334106 C54.35627868 13.37418048 56.18917261 13.85598345 58.02178955 14.33883667 C67.9291597 16.94907952 77.8393949 19.5009906 87.83283997 21.76358032 C92.79668226 22.89834113 92.79668226 22.89834113 95 24 C94.85769192 25.41702513 94.71099254 26.8336096 94.5625 28.25 C94.44068359 29.43335938 94.44068359 29.43335938 94.31640625 30.640625 C94.02334935 32.82588881 93.55243725 34.86888974 93 37 C86.68358322 35.61995924 80.40156717 34.14035369 74.12890625 32.57421875 C73.20770493 32.34475052 72.2865036 32.11528229 71.33738708 31.87886047 C69.39509972 31.39454738 67.45296838 30.90960815 65.51098633 30.42407227 C62.60235999 29.69745757 59.69281572 28.97460684 56.78320312 28.25195312 C47.21280808 25.86624498 37.67874945 23.39529072 28.18582153 20.71737671 C20.75311902 18.62812125 13.2574054 16.82320481 5.74023438 15.06445312 C4.74185547 14.82275391 3.74347656 14.58105469 2.71484375 14.33203125 C1.82917725 14.12296143 0.94351074 13.9138916 0.03100586 13.69848633 C-2 13 -2 13 -3 11 C-2.59373098 9.10786597 -2.10271265 7.23333151 -1.5625 5.375 C-1.27503906 4.37210937 -0.98757812 3.36921875 -0.69140625 2.3359375 C-0.46324219 1.56507813 -0.23507813 0.79421875 0 0 Z " fill="#F3E2F6" transform="translate(19,344)"/>
<path d="M0 0 C23.76 0 47.52 0 72 0 C72 6.27 72 12.54 72 19 C64.63995835 19.45004958 57.28814075 19.7737561 49.91748047 19.98876953 C47.41996651 20.07848324 44.92337601 20.2007266 42.42919922 20.35791016 C20.61769224 21.6965225 20.61769224 21.6965225 12.22558594 14.94824219 C7.69320182 10.70573883 3.53024435 6.11675058 0 1 C0 0.67 0 0.34 0 0 Z " fill="#EAE3F3" transform="translate(182,172)"/>
<path d="M0 0 C3.96 0 7.92 0 12 0 C12 32.01 12 64.02 12 97 C8.04 97 4.08 97 0 97 C0 64.99 0 32.98 0 0 Z " fill="#F1B339" transform="translate(420,257)"/>
<path d="M0 0 C3.96 0 7.92 0 12 0 C12 32.01 12 64.02 12 97 C8.04 97 4.08 97 0 97 C0 64.99 0 32.98 0 0 Z " fill="#FEB730" transform="translate(200,257)"/>
<path d="M0 0 C3.96 0 7.92 0 12 0 C12 32.01 12 64.02 12 97 C8.04 97 4.08 97 0 97 C0 64.99 0 32.98 0 0 Z " fill="#FEB730" transform="translate(169,257)"/>
<path d="M0 0 C3.96 0 7.92 0 12 0 C12 32.01 12 64.02 12 97 C8.04 97 4.08 97 0 97 C0 64.99 0 32.98 0 0 Z " fill="#E5B544" transform="translate(451,257)"/>
<path d="M0 0 C0.92212784 0.00359528 1.84425568 0.00719055 2.79432678 0.01089478 C4.24295105 0.01067574 4.24295105 0.01067574 5.72084045 0.01045227 C8.92952175 0.01115182 12.1381458 0.0189462 15.34681702 0.02676392 C17.56499195 0.02862794 19.78316729 0.03005192 22.00134277 0.03105164 C27.85231148 0.03487801 33.70325554 0.04470931 39.55421448 0.05575562 C45.51958381 0.06596717 51.4849571 0.07054871 57.45033264 0.07559204 C69.16453621 0.08633147 80.87872144 0.10340932 92.59291077 0.12442017 C90.64520193 1.42289272 88.66644265 2.67635862 86.65541077 3.87442017 C83.41938079 5.91205865 83.41938079 5.91205865 81.94050598 9.22247314 C79.59291077 12.12442017 79.59291077 12.12442017 75.73310852 12.84594727 C74.14507268 12.86331049 72.55646592 12.84744735 70.96888733 12.80557251 C69.6659095 12.80688675 69.6659095 12.80688675 68.33660889 12.80822754 C65.46800008 12.8040503 62.60173549 12.75739318 59.73353577 12.71035767 C57.7438637 12.69916598 55.7541751 12.69062567 53.76448059 12.68463135 C48.52959987 12.66173091 43.29571928 12.60279675 38.06123352 12.53640747 C32.71906566 12.47501139 27.37673605 12.44762202 22.03431702 12.41738892 C11.55340903 12.35305508 1.07324309 12.25066049 -9.40708923 12.12442017 C-9.09939217 10.31109862 -8.78579859 8.49877671 -8.46958923 6.68692017 C-8.20855408 5.17291626 -8.20855408 5.17291626 -7.94224548 3.62832642 C-6.92127491 -1.1486235 -4.42102021 0.00728379 0 0 Z " fill="#55C26F" transform="translate(175.40708923339844,158.87557983398438)"/>
<path d="M0 0 C1.46373047 0.02707031 1.46373047 0.02707031 2.95703125 0.0546875 C3.69308594 0.07789063 4.42914063 0.10109375 5.1875 0.125 C3.50114771 1.24923486 1.80973327 2.36623306 0.1015625 3.45703125 C-5.13409712 6.84171025 -5.13409712 6.84171025 -9.75 11 C-10.430625 11.70125 -11.11125 12.4025 -11.8125 13.125 C-12.4725 13.125 -13.1325 13.125 -13.8125 13.125 C-14.01256653 14.00324432 -14.01256653 14.00324432 -14.2166748 14.89923096 C-14.8125 17.125 -14.8125 17.125 -16.34570312 20.73730469 C-18.18996363 25.59860491 -18.28010325 30.17335565 -18.28125 35.328125 C-18.28886353 36.28716736 -18.29647705 37.24620972 -18.30432129 38.23431396 C-18.31507629 40.25465304 -18.31799422 42.27504751 -18.31347656 44.29541016 C-18.31250702 47.35285451 -18.35412484 50.40776256 -18.3984375 53.46484375 C-18.47053957 65.34525175 -18.26344093 75.34815452 -10.5 85 C-9.1696875 86.051875 -9.1696875 86.051875 -7.8125 87.125 C-7.22597656 87.62515625 -6.63945312 88.1253125 -6.03515625 88.640625 C-1.29510138 92.50775887 3.29112779 94.56901289 9.1875 96.125 C9.1875 96.455 9.1875 96.785 9.1875 97.125 C-1.71613054 97.99497052 -10.62310835 95.81859572 -19.25 88.875 C-26.30605516 82.11172721 -30.8474889 72.06943143 -31.140625 62.28515625 C-31.13184559 60.58576064 -31.10520797 58.88638156 -31.0625 57.1875 C-31.04936768 56.28088623 -31.03623535 55.37427246 -31.02270508 54.44018555 C-30.97313719 51.66752705 -30.89644912 48.89681119 -30.8125 46.125 C-30.79171387 45.28001953 -30.77092773 44.43503906 -30.74951172 43.56445312 C-30.40834441 30.85786642 -29.64069465 19.05671898 -20.8125 9.125 C-14.44814493 3.78057362 -8.49880257 -0.20479042 0 0 Z " fill="#FEA03B" transform="translate(164.8125,354.875)"/>
<path d="M0 0 C-2.41585451 1.61056967 -4.74577936 2.92009293 -7.3125 4.25 C-11.67275097 6.62896429 -14.59074095 9.42443564 -18 13 C-18.66 13 -19.32 13 -20 13 C-20.103125 13.639375 -20.20625 14.27875 -20.3125 14.9375 C-21 18 -21 18 -21.734375 19.703125 C-24.77579035 26.99104479 -24.31150863 34.40686863 -24.078125 42.13916016 C-23.98968209 45.3778288 -23.94917613 48.61588745 -23.90625 51.85546875 C-23.85617996 54.2578553 -23.80410143 56.66020085 -23.75 59.0625 C-23.73614258 60.20380371 -23.72228516 61.34510742 -23.70800781 62.52099609 C-23.41530407 72.39322671 -20.93311494 79.81469438 -14.203125 87.14453125 C-10.71593059 90.08144143 -6.80317333 91.89652785 -2.671875 93.7734375 C0 95 0 95 3 97 C-7.72094081 97.74652586 -15.98835651 95.91563035 -24.3125 88.875 C-30.97793019 82.45368588 -35.77873159 75.42610488 -36.16113281 66.04858398 C-36.18123602 64.44781894 -36.19482601 62.84696351 -36.203125 61.24609375 C-36.20882507 60.39000015 -36.21452515 59.53390656 -36.22039795 58.65187073 C-36.22983578 56.83880849 -36.23637709 55.02572919 -36.24023438 53.21264648 C-36.24988026 50.4715267 -36.28088989 47.73117643 -36.3125 44.99023438 C-36.39925852 30.85786864 -35.4327778 19.05967495 -25.37109375 8.25 C-17.76050746 1.18681087 -10.21764587 -0.68754253 0 0 Z " fill="#FEA03B" transform="translate(233,355)"/>
<path d="M0 0 C0.45874512 0.85746826 0.91749023 1.71493652 1.39013672 2.59838867 C6.30997674 8.37491726 11.50452785 11.51889526 18.39013672 14.59838867 C19.72537877 15.26122416 21.05901901 15.92730905 22.39013672 16.59838867 C15.32849586 16.7004621 8.2670478 16.77013498 1.20483398 16.81811523 C-1.19367584 16.83813376 -3.59213746 16.865357 -5.99047852 16.90014648 C-9.4535721 16.9490948 -12.91601608 16.97145599 -16.37939453 16.98901367 C-17.96757744 17.01998138 -17.96757744 17.01998138 -19.58784485 17.05157471 C-28.63237644 17.0542531 -37.35275997 15.07195161 -44.54736328 9.28588867 C-45.23701172 8.75350586 -45.92666016 8.22112305 -46.63720703 7.67260742 C-49.25722309 4.91769945 -50.75988638 1.92074213 -52.60986328 -1.40161133 C-45.56325229 -1.67126906 -38.51614969 -1.90122287 -31.46728516 -2.10351562 C-29.06920028 -2.17703569 -26.67137681 -2.25966674 -24.27392578 -2.3515625 C-20.82889359 -2.48203454 -17.38425184 -2.57978224 -13.93798828 -2.67114258 C-12.86494446 -2.71882278 -11.79190063 -2.76650299 -10.68634033 -2.81562805 C-3.22505523 -2.96771453 -3.22505523 -2.96771453 0 0 Z " fill="#FEA928" transform="translate(202.60986328125,435.401611328125)"/>
<path d="M0 0 C99.33 0 198.66 0 301 0 C301 0.33 301 0.66 301 1 C160.915 1.495 160.915 1.495 18 2 C23.94 7.94 29.88 13.88 36 20 C36 20.33 36 20.66 36 21 C22.47 21.33 8.94 21.66 -5 22 C-1 3 -1 3 0 0 Z " fill="#CDD4D8" transform="translate(165,171)"/>
<path d="M0 0 C5.56407812 0.92128527 10.0368714 1.68718358 14 6 C18.16125201 12.93542001 16.93418492 18.95640727 15.16308594 26.62255859 C14.14576477 30.63931061 13.04420023 34.6321433 11.9375 38.625 C11.55591029 40.02454066 11.17504549 41.42427918 10.79492188 42.82421875 C9.8716181 46.21846517 8.93856571 49.60993766 8 53 C5.18333639 52.41157717 2.37273568 51.80525764 -0.4375 51.1875 C-1.23994141 51.02185547 -2.04238281 50.85621094 -2.86914062 50.68554688 C-4.93749958 50.22300247 -6.97333737 49.62023759 -9 49 C-10.07495942 45.77512175 -9.95926839 45.00278487 -9.11962891 41.8515625 C-8.79401474 40.60511963 -8.79401474 40.60511963 -8.46182251 39.33349609 C-8.21918671 38.43969238 -7.9765509 37.54588867 -7.7265625 36.625 C-7.48336273 35.70412598 -7.24016296 34.78325195 -6.98959351 33.83447266 C-6.20918769 30.88751448 -5.41712568 27.94382706 -4.625 25 C-4.09821563 23.01582203 -3.57216492 21.03144913 -3.046875 19.046875 C-2.08199147 15.41288708 -1.11524986 11.7794331 -0.13916016 8.1484375 C0.05704926 7.41802246 0.25325867 6.68760742 0.45541382 5.93505859 C0.92237923 4.2758071 1.4549154 2.6352538 2 1 C1.34 0.67 0.68 0.34 0 0 Z " fill="#FA3B21" transform="translate(170,73)"/>
<path d="M0 0 C1.75 0.015625 1.75 0.015625 4 0.25 C5.0828125 0.35054688 5.0828125 0.35054688 6.1875 0.453125 C10.25528943 1.24408406 14.09555525 2.62834049 18 4 C16.80653914 8.87851956 15.5975907 13.75284477 14.37451172 18.62402344 C13.96111453 20.27955152 13.55187166 21.936123 13.14697266 23.59375 C12.56217215 25.98467886 11.96223076 28.37138073 11.359375 30.7578125 C11.18315613 31.49242706 11.00693726 32.22704163 10.82537842 32.98391724 C9.40145104 38.52712575 7.2591284 42.94624691 2.9375 46.875 C-2.10868299 48.80758072 -8.31906888 49.16815196 -13.33984375 46.98046875 C-13.88769531 46.65691406 -14.43554688 46.33335937 -15 46 C-14.01 46 -13.02 46 -12 46 C-11.90855713 45.41041504 -11.81711426 44.82083008 -11.72290039 44.21337891 C-10.33041784 35.9050809 -8.23499864 27.82801695 -6.05883789 19.69873047 C-5.42981273 17.34625051 -4.80923563 14.99164876 -4.18945312 12.63671875 C-3.79215929 11.14049411 -3.39439085 9.64439538 -2.99609375 8.1484375 C-2.71795082 7.09237808 -2.71795082 7.09237808 -2.43418884 6.01498413 C-1.11527858 1.11527858 -1.11527858 1.11527858 0 0 Z " fill="#FA3B20" transform="translate(86,407)"/>
<path d="M0 0 C15.84 0 31.68 0 48 0 C48 10.33333333 48 10.33333333 44 15 C39.17250078 19.2423478 34.77309147 19.08868355 28.61328125 18.87890625 C27.79627243 18.85529526 26.97926361 18.83168427 26.13749695 18.80735779 C23.52898407 18.73080782 20.92077456 18.64674628 18.3125 18.5625 C16.54363462 18.50927063 14.77475445 18.45653028 13.00585938 18.40429688 C8.67032502 18.27612294 4.33528198 18.13779625 0 18 C0 12.06 0 6.12 0 0 Z " fill="#1675CB" transform="translate(464,336)"/>
<path d="M0 0 C15.18 0 30.36 0 46 0 C46 5.94 46 11.88 46 18 C26.28432023 19.10297509 26.28432023 19.10297509 16.625 19.25 C15.9431665 19.27126953 15.26133301 19.29253906 14.55883789 19.31445312 C8.87784606 19.35413574 5.17514398 17.54549704 0.625 14.3125 C-1.73066578 10.96020639 -1.47370202 7.97599073 -1 4 C-0.67 2.68 -0.34 1.36 0 0 Z " fill="#1675CA" transform="translate(122,336)"/>
<path d="M0 0 C5.58758173 -0.09201873 11.17251711 -0.17159791 16.76025391 -0.21972656 C18.65943325 -0.23979629 20.55855115 -0.26705851 22.45751953 -0.30175781 C25.19318839 -0.35048109 27.92803771 -0.37301507 30.6640625 -0.390625 C31.50804596 -0.41127014 32.35202942 -0.43191528 33.22158813 -0.45318604 C38.64880708 -0.45523469 41.68496718 0.40261477 46 4 C48.7734418 7.2356821 49.13742607 9.54829697 49.0703125 13.67578125 C49.06016113 14.48571533 49.05000977 15.29564941 49.03955078 16.13012695 C49.02649902 16.74718506 49.01344727 17.36424316 49 18 C46.14613583 18.27783651 43.29547492 18.52278765 40.4375 18.75 C39.63763672 18.83121094 38.83777344 18.91242188 38.01367188 18.99609375 C32.85150611 19.37535491 30.37102961 18.85262467 25.94506836 15.91699219 C21.80775023 13.96647544 17.03565399 14.59984288 12.5625 14.75 C9.076875 14.8325 5.59125 14.915 2 15 C1.67 22.59 1.34 30.18 1 38 C0.67 38 0.34 38 0 38 C0 25.46 0 12.92 0 0 Z " fill="#4696F1" transform="translate(463,257)"/>
<path d="M0 0 C1.56105217 0.00022659 1.56105217 0.00022659 3.15364075 0.00045776 C4.82108589 0.01594162 4.82108589 0.01594162 6.5222168 0.03173828 C7.6693364 0.03456818 8.81645599 0.03739807 9.99833679 0.04031372 C13.65614322 0.05149382 17.31370332 0.07659483 20.97143555 0.10205078 C23.45385388 0.11208337 25.93627606 0.12120873 28.41870117 0.12939453 C34.49886311 0.15142608 40.57888172 0.1848823 46.65893555 0.22705078 C44.25029009 1.83281442 41.98139914 3.06581899 39.40893555 4.35205078 C34.38512941 7.09006624 31.12319985 10.73798804 27.65893555 15.22705078 C27.16393555 14.23705078 27.16393555 14.23705078 26.65893555 13.22705078 C10.48893555 13.22705078 -5.68106445 13.22705078 -22.34106445 13.22705078 C-20.28550889 9.11593965 -19.1928533 8.09618442 -15.52856445 5.60205078 C-14.67649414 5.01166016 -13.82442383 4.42126953 -12.9465332 3.81298828 C-8.59495885 1.1642039 -5.1068545 -0.02485087 0 0 Z " fill="#FED844" transform="translate(175.341064453125,354.77294921875)"/>
<path d="M0 0 C8.25 0 16.5 0 25 0 C25 5.94 25 11.88 25 18 C15.43 18.33 5.86 18.66 -4 19 C-3 11 -3 11 0 0 Z " fill="#4594F1" transform="translate(143,257)"/>
<path d="M0 0 C1.23556641 0.01740234 1.23556641 0.01740234 2.49609375 0.03515625 C3.32238281 0.04417969 4.14867187 0.05320312 5 0.0625 C5.63808594 0.07410156 6.27617187 0.08570313 6.93359375 0.09765625 C7.01996094 0.8246875 7.10632813 1.55171875 7.1953125 2.30078125 C8.56714632 12.1175737 10.80316224 22.66894296 18.93359375 29.09765625 C19.52011719 29.5978125 20.10664063 30.09796875 20.7109375 30.61328125 C25.45099237 34.48041512 30.03722154 36.54166914 35.93359375 38.09765625 C35.93359375 38.42765625 35.93359375 38.75765625 35.93359375 39.09765625 C25.02996321 39.96762677 16.1229854 37.79125197 7.49609375 30.84765625 C1.70733749 25.32366639 -2.78368308 17.38755559 -3.21484375 9.3203125 C-3.25032791 6.56319294 -3.267871 3.8478843 -3.06640625 1.09765625 C-2.06640625 0.09765625 -2.06640625 0.09765625 0 0 Z " fill="#F9351A" transform="translate(138.06640625,412.90234375)"/>
<path d="M0 0 C1.23556641 0.01740234 1.23556641 0.01740234 2.49609375 0.03515625 C3.32238281 0.04417969 4.14867187 0.05320312 5 0.0625 C5.63808594 0.07410156 6.27617187 0.08570313 6.93359375 0.09765625 C7.08054688 1.45697266 7.08054688 1.45697266 7.23046875 2.84375 C8.61193234 14.09791463 10.95371314 23.53481354 19.93359375 31.09765625 C22.98054569 32.8776761 26.049742 34.41184543 29.26171875 35.87109375 C31.93359375 37.09765625 31.93359375 37.09765625 34.93359375 39.09765625 C24.21265294 39.84418211 15.94523724 38.0132866 7.62109375 30.97265625 C1.23140497 24.69506727 -3.27178899 19.37385842 -3.51513672 10.09814453 C-3.46105499 0.16356593 -3.46105499 0.16356593 0 0 Z " fill="#F9351A" transform="translate(201.06640625,412.90234375)"/>
<path d="M0 0 C6.64470619 0.46143793 11.87633314 1.39177152 18 4 C17.37968409 10.57534861 15.85102717 16.66692592 14 23 C13.67 22.34 13.34 21.68 13 21 C10.51081123 20.38578459 8.08267748 19.87730937 5.5625 19.4375 C-1.7860262 18.1069869 -1.7860262 18.1069869 -4 17 C-2.68 11.39 -1.36 5.78 0 0 Z " fill="#FA3D24" transform="translate(93,377)"/>
<path d="M0 0 C13.00487149 -0.27414749 13.00487149 -0.27414749 17.5078125 2.6015625 C18.90581692 3.97830449 20.28157242 5.37792705 21.63671875 6.796875 C28.98821094 13.65016689 39.15388971 17.01538897 49 18 C49 18.33 49 18.66 49 19 C19.14752134 20.12552849 19.14752134 20.12552849 7.5 10.5 C4.73793956 7.8587797 2.1672002 5.16050028 0 2 C0 1.34 0 0.68 0 0 Z " fill="#FEA828" transform="translate(212,433)"/>
<path d="M0 0 C5.61 0 11.22 0 17 0 C17 5.94 17 11.88 17 18 C8.585 18.495 8.585 18.495 0 19 C0 12.73 0 6.46 0 0 Z " fill="#4494F2" transform="translate(182,257)"/>
<path d="M0 0 C5.61 0 11.22 0 17 0 C17 5.94 17 11.88 17 18 C11.39 18 5.78 18 0 18 C0 12.06 0 6.12 0 0 Z " fill="#1675CB" transform="translate(433,336)"/>
<path d="M0 0 C5.61 0 11.22 0 17 0 C17 5.94 17 11.88 17 18 C11.39 18 5.78 18 0 18 C0 12.06 0 6.12 0 0 Z " fill="#1675CB" transform="translate(182,336)"/>
<path d="M0 0 C14.24647887 -1.38531187 14.24647887 -1.38531187 18.26953125 1.79296875 C19.35093297 3.36376395 20.3821138 4.97018966 21.36328125 6.60546875 C25.20906303 12.23187503 32.56857356 15.30751936 39 17 C39 17.33 39 17.66 39 18 C26.41112726 18.56228216 16.99922518 17.79641738 6.76171875 9.65625 C3.97999157 7.04105638 2.02784978 4.23188559 0 1 C0 0.67 0 0.34 0 0 Z " fill="#FEA927" transform="translate(123,434)"/>
<path d="M0 0 C5.61 0 11.22 0 17 0 C17 4.62 17 9.24 17 14 C8.585 14.495 8.585 14.495 0 15 C0 10.05 0 5.1 0 0 Z " fill="#4595F3" transform="translate(433,257)"/>
<path d="M0 0 C0.74958984 0.00451172 1.49917969 0.00902344 2.27148438 0.01367188 C4.11852383 0.02543646 5.96552213 0.04337135 7.8125 0.0625 C5.96965548 1.29106301 4.10833719 2.49305738 2.21875 3.6484375 C1.2596875 4.23882812 0.300625 4.82921875 -0.6875 5.4375 C-1.6465625 6.02273438 -2.605625 6.60796875 -3.59375 7.2109375 C-6.25532991 8.86301641 -6.25532991 8.86301641 -7.5625 11.25 C-9.1875 13.0625 -9.1875 13.0625 -12.65625 13.6015625 C-13.99945903 13.64925039 -15.34348371 13.67725988 -16.6875 13.6875 C-22.21878461 13.71668041 -22.21878461 13.71668041 -27.1875 16.0625 C-23.79140518 8.42128666 -18.38949846 4.86188483 -11.1875 1.0625 C-7.42449626 -0.19183458 -3.91539091 -0.04445422 0 0 Z " fill="#FED944" transform="translate(151.1875,354.9375)"/>
<path d="M0 0 C1.77226453 0.28284018 3.542788 0.57660498 5.3125 0.875 C6.29863281 1.03742188 7.28476563 1.19984375 8.30078125 1.3671875 C11 2 11 2 14 4 C13.69217504 5.64671412 13.37860766 7.29235576 13.0625 8.9375 C12.88847656 9.85402344 12.71445313 10.77054688 12.53515625 11.71484375 C12 14 12 14 11 15 C9.37146465 14.93579251 7.74550788 14.7987936 6.125 14.625 C5.24070312 14.53476563 4.35640625 14.44453125 3.4453125 14.3515625 C1 14 1 14 -2 13 C-1.85769192 11.58297487 -1.71099254 10.1663904 -1.5625 8.75 C-1.48128906 7.96109375 -1.40007812 7.1721875 -1.31640625 6.359375 C-1.02365007 4.17635361 -0.57935581 2.1226818 0 0 Z " fill="#F8EEF2" transform="translate(82,101)"/>
<path d="M0 0 C3.96 0 7.92 0 12 0 C12 4.62 12 9.24 12 14 C6.06 14.495 6.06 14.495 0 15 C0 10.05 0 5.1 0 0 Z " fill="#FCD443" transform="translate(420,257)"/>
<path d="M0 0 C3.96 0 7.92 0 12 0 C12 4.62 12 9.24 12 14 C8.04 14 4.08 14 0 14 C0 9.38 0 4.76 0 0 Z " fill="#FCD443" transform="translate(451,257)"/>
<path d="M0 0 C1.46373047 0.02707031 1.46373047 0.02707031 2.95703125 0.0546875 C3.69308594 0.07789063 4.42914063 0.10109375 5.1875 0.125 C3.50114771 1.24923486 1.80973327 2.36623306 0.1015625 3.45703125 C-4.96542312 6.72760485 -4.96542312 6.72760485 -9.1875 11 C-13.31444895 14.34086344 -17.70188377 13.5277631 -22.8125 13.125 C-21.32947991 9.36359708 -19.30816697 7.75173584 -16 5.5 C-15.14792969 4.90960938 -14.29585937 4.31921875 -13.41796875 3.7109375 C-8.81397575 0.90850698 -5.4035301 -0.13020554 0 0 Z " fill="#FF7544" transform="translate(164.8125,354.875)"/>
<path d="M0 0 C-2.41585451 1.61056967 -4.74577936 2.92009293 -7.3125 4.25 C-10.49278377 5.96010444 -12.6082702 7.51708686 -14.875 10.3125 C-16.89398503 12.55517939 -17.7545258 12.96692917 -20.8125 13.37890625 C-23.56698734 13.37539287 -26.25897349 13.26337265 -29 13 C-21.83226821 3.04481696 -12.20355632 -1.29722843 0 0 Z " fill="#FF7344" transform="translate(233,355)"/>
<path d="M0 0 C3.63787322 1.81893661 5.47219232 3.22810735 8.25 6.0625 C8.95640625 6.77535156 9.6628125 7.48820313 10.390625 8.22265625 C12 10 12 10 12 11 C7.38 11 2.76 11 -2 11 C-1.34 7.37 -0.68 3.74 0 0 Z " fill="#25A358" transform="translate(168,160)"/>
<path d="M0 0 C0.33 0.66 0.66 1.32 1 2 C4.3 2 7.6 2 11 2 C11 3.32 11 4.64 11 6 C6.545 6.495 6.545 6.495 2 7 C1.67 10.63 1.34 14.26 1 18 C0.67 18 0.34 18 0 18 C0 12.06 0 6.12 0 0 Z " fill="#FD6434" transform="translate(197,407)"/>
<path d="M0 0 C1.64574566 -0.02688151 3.29161413 -0.04634123 4.9375 -0.0625 C5.85402344 -0.07410156 6.77054688 -0.08570313 7.71484375 -0.09765625 C10 0 10 0 11 1 C11.14115161 3.67058851 11.04247107 6.32432238 11 9 C10.67 9 10.34 9 10 9 C10 7.35 10 5.7 10 4 C6.7 4.33 3.4 4.66 0 5 C0 3.35 0 1.7 0 0 Z " fill="#FD6136" transform="translate(135,409)"/>
<path d="M0 0 C2.97 0 5.94 0 9 0 C8.01 1.485 8.01 1.485 7 3 C4.69 2.34 2.38 1.68 0 1 C0 0.67 0 0.34 0 0 Z " fill="#CEC4E3" transform="translate(445,388)"/>
</svg>
