<?xml version="1.0" encoding="UTF-8"?>
<svg version="1.1" xmlns="http://www.w3.org/2000/svg" width="512" height="512">
<path d="M0 0 C1.27033805 0.13021042 2.5406761 0.26042084 3.84950924 0.39457703 C26.79584677 2.77558021 49.70413582 5.53134851 72.61743164 8.20703125 C75.23560863 8.51251661 77.85378733 8.81798727 80.4719677 9.1234436 C91.34822273 10.39263196 102.2243082 11.66326163 113.09994602 12.93772888 C115.8913358 13.26481739 118.68272705 13.59189327 121.47412109 13.91894531 C122.16761081 14.00019909 122.86110053 14.08145287 123.57560509 14.16516888 C134.88582384 15.49007049 146.19717862 16.80500925 157.50901378 18.11603081 C169.18067102 19.46892389 180.85125838 20.83075289 192.52084965 22.20135403 C199.05080268 22.96795663 205.58116192 23.73059074 212.11270332 24.48355103 C218.22996444 25.18895999 224.34581197 25.90554179 230.46074486 26.63084793 C232.70447499 26.89499827 234.94869018 27.15506481 237.19339752 27.41077805 C240.25241715 27.75987992 243.30936118 28.12354388 246.3662262 28.4909668 C247.25724409 28.58912847 248.14826199 28.68729013 249.06628042 28.7884264 C254.79076771 29.49767555 258.6173977 30.71090356 262.80102539 34.89453125 C263.48027067 41.91339917 263.48027067 41.91339917 261.11352539 45.33203125 C258.80102539 46.89453125 258.80102539 46.89453125 256.17602539 47.33203125 C255.39227539 47.51765625 254.60852539 47.70328125 253.80102539 47.89453125 C252.51205339 49.93205896 252.51205339 49.93205896 251.80102539 52.89453125 C251.56134033 53.58385742 251.32165527 54.27318359 251.07470703 54.98339844 C248.90080048 61.48457828 248.29424473 67.37515671 248.36352539 74.20703125 C248.36747314 75.21088867 248.3714209 76.21474609 248.37548828 77.24902344 C248.52680182 85.09200279 249.76207869 91.62058654 252.80102539 98.89453125 C253.13102539 99.88453125 253.46102539 100.87453125 253.80102539 101.89453125 C256.13113448 102.57238117 258.46462363 103.23869918 260.80102539 103.89453125 C263.25445954 107.57468248 263.49929394 110.61871398 262.80102539 114.89453125 C261.11352539 117.33203125 261.11352539 117.33203125 258.80102539 118.89453125 C257.50165039 119.11109375 257.50165039 119.11109375 256.17602539 119.33203125 C255.39227539 119.51765625 254.60852539 119.70328125 253.80102539 119.89453125 C252.51205339 121.93205896 252.51205339 121.93205896 251.80102539 124.89453125 C251.56134033 125.58385742 251.32165527 126.27318359 251.07470703 126.98339844 C248.90080048 133.48457828 248.29424473 139.37515671 248.36352539 146.20703125 C248.36747314 147.21088867 248.3714209 148.21474609 248.37548828 149.24902344 C248.52680182 157.09200279 249.76207869 163.62058654 252.80102539 170.89453125 C253.13102539 171.88453125 253.46102539 172.87453125 253.80102539 173.89453125 C256.13113448 174.57238117 258.46462363 175.23869918 260.80102539 175.89453125 C263.2589315 179.58139041 263.48576681 182.61273049 262.80102539 186.89453125 C260.66020579 190.06294426 259.062593 190.80734205 255.42602539 192.01953125 C250.12684807 194.16416618 248.03322512 198.89466191 245.80102539 203.89453125 C241.78729424 215.53946462 240.59894558 226.15092175 240.55102539 238.39453125 C240.53040039 239.68101562 240.50977539 240.9675 240.48852539 242.29296875 C240.43043221 256.72912493 242.53524847 273.83907918 252.80102539 284.89453125 C255.07870917 286.23531916 255.07870917 286.23531916 257.48852539 287.08203125 C261.7057873 288.70405506 261.7057873 288.70405506 262.80102539 290.89453125 C263.38847178 298.1788665 263.38847178 298.1788665 261.11172485 300.95254517 C258.41522672 303.21876885 256.86601326 303.58328539 253.40405273 304.03662109 C252.3391864 304.18379578 251.27432007 304.33097046 250.17718506 304.48260498 C248.50598602 304.68650848 248.50598602 304.68650848 246.80102539 304.89453125 C245.72282532 305.03804016 244.64462524 305.18154907 243.53375244 305.32940674 C240.07572346 305.78168526 236.61513583 306.2048788 233.15258789 306.62109375 C231.8964267 306.77363617 230.6402655 306.92617859 229.34603882 307.08334351 C226.71253563 307.40230341 224.07892691 307.72014596 221.44506836 308.03613281 C218.08245832 308.43977295 214.72057566 308.84915923 211.35885048 309.2600956 C208.12383386 309.65461298 204.88817965 310.0438259 201.65258789 310.43359375 C200.45252106 310.5804361 199.25245422 310.72727844 198.01602173 310.87857056 C196.8940036 311.01226044 195.77198547 311.14595032 194.6159668 311.28369141 C193.14469833 311.46117416 193.14469833 311.46117416 191.64370728 311.64224243 C188.68136583 311.90515107 185.7734221 311.93757157 182.80102539 311.89453125 C182.82197266 312.93383789 182.84291992 313.97314453 182.86450195 315.04394531 C182.93698213 318.90529567 182.9828537 322.76658608 183.02075195 326.62841797 C183.04084932 328.29876827 183.06813222 329.96904838 183.1027832 331.63916016 C183.15138658 334.04216845 183.17401195 336.44424559 183.19165039 338.84765625 C183.21229553 339.59259338 183.23294067 340.33753052 183.25421143 341.1050415 C183.25569912 344.55401323 183.06378626 346.52989823 181.02270508 349.36230469 C178.35469906 351.20234928 176.10719223 351.41499877 172.89868164 351.5234375 C166.89423119 349.72322051 162.60903284 341.96575843 158.98852539 337.20703125 C158.39104492 336.43552734 157.79356445 335.66402344 157.17797852 334.86914062 C156.33203125 333.7621582 156.33203125 333.7621582 155.46899414 332.6328125 C154.69978638 331.627948 154.69978638 331.627948 153.91503906 330.6027832 C152.80102539 328.89453125 152.80102539 328.89453125 152.80102539 326.89453125 C152.14102539 326.89453125 151.48102539 326.89453125 150.80102539 326.89453125 C150.5405542 327.59811768 150.28008301 328.3017041 150.01171875 329.02661133 C147.95639319 333.89531658 145.12392666 338.31997669 142.40625 342.84301758 C141.3629414 344.5830052 140.33081027 346.32930479 139.29907227 348.07617188 C138.64100586 349.17509766 137.98293945 350.27402344 137.30493164 351.40625 C136.4049646 352.91384888 136.4049646 352.91384888 135.48681641 354.4519043 C133.80102539 356.89453125 133.80102539 356.89453125 130.80102539 358.89453125 C123.72917539 359.56804077 123.72917539 359.56804077 120.69824219 357.36865234 C118.08700876 353.96339697 118.29645288 350.95921603 118.41040039 346.84765625 C118.41606018 346.07645447 118.42171997 345.30525269 118.42755127 344.51068115 C118.4498895 342.05465846 118.50007776 339.6001107 118.55102539 337.14453125 C118.57109385 335.47658362 118.58934402 333.80861304 118.60571289 332.140625 C118.64974547 328.05802802 118.71875256 323.97652944 118.80102539 319.89453125 C117.63422241 320.05272339 117.63422241 320.05272339 116.44384766 320.21411133 C108.58127802 321.27765011 100.71673621 322.3250428 92.8503418 323.35986328 C90.30509936 323.69495965 87.76069841 324.03497043 85.21655273 324.37841797 C81.99608679 324.81186078 78.77398886 325.23012467 75.55102539 325.64453125 C74.16572632 325.83559448 74.16572632 325.83559448 72.75244141 326.03051758 C54.8930758 328.26901689 37.41019791 326.21155604 19.65014648 324.08056641 C17.05962204 323.77751834 14.46899175 323.47537394 11.87826538 323.17405701 C5.61650016 322.44407153 -0.64391649 321.70310326 -6.90392323 320.95820452 C-14.20676789 320.08963278 -21.51089893 319.23212021 -28.81508951 318.37495355 C-41.84787916 316.84513358 -54.87946535 315.30529637 -67.91040039 313.75976562 C-80.53646678 312.26226209 -93.1633742 310.77212509 -105.79125977 309.29003906 C-106.57057435 309.19857301 -107.34988893 309.10710695 -108.15281911 309.01286919 C-108.93083196 308.92155639 -109.7088448 308.83024359 -110.51043379 308.73616374 C-124.92648667 307.0441378 -139.34172113 305.34522835 -153.75658704 303.64312191 C-158.84140234 303.04286561 -163.92645449 302.44464238 -169.01158524 301.84706497 C-175.85281563 301.04296748 -182.69333257 300.23301253 -189.53341293 299.41919136 C-192.04221834 299.12151338 -194.55123368 298.82559859 -197.06047058 298.53157997 C-200.48610918 298.12986523 -203.91092218 297.72171846 -207.33560181 297.31192017 C-208.32723127 297.19712645 -209.31886073 297.08233274 -210.34053957 296.96406043 C-220.59771448 295.72172612 -228.92302017 294.16360653 -235.85913086 285.921875 C-251.13872978 264.38975478 -252.14971482 233.28361089 -248.48022461 207.85546875 C-246.50513614 197.00874018 -243.07674562 186.84290961 -236.57397461 177.89453125 C-234.56644111 174.72527786 -234.04330623 173.59961744 -234.86303711 169.88671875 C-236.18179844 166.80960897 -237.65598783 163.86436603 -239.19897461 160.89453125 C-244.99040083 145.41133055 -242.76404386 126.02997912 -237.19897461 110.89453125 C-236.452031 109.51519129 -235.66815288 108.15410028 -234.82397461 106.83203125 C-234.28772461 105.86265625 -233.75147461 104.89328125 -233.19897461 103.89453125 C-233.92070787 101.47775696 -233.92070787 101.47775696 -235.19897461 98.89453125 C-242.93363094 80.87179038 -244.90169051 60.67256802 -238.19897461 41.89453125 C-235.36409266 34.86333467 -232.24340878 27.53459203 -225.19897461 23.89453125 C-219.96080228 22.45586463 -214.81246487 21.45707544 -209.41499329 20.82554626 C-208.30368893 20.68928411 -208.30368893 20.68928411 -207.16993397 20.55026919 C-204.71052808 20.24996186 -202.25031808 19.95687947 -199.79003906 19.66381836 C-198.01681913 19.44882834 -196.24365252 19.23339818 -194.47053528 19.01756287 C-189.66919196 18.43444984 -184.86710507 17.85768964 -180.06483865 17.28223491 C-175.02566784 16.67745054 -169.98714494 16.0673132 -164.9485321 15.457901 C-156.48303329 14.43483105 -148.0170634 13.41573601 -139.55078125 12.39916992 C-129.78801133 11.22689814 -120.02591859 10.04911842 -110.26419288 8.86818498 C-100.84912018 7.72925599 -91.43366143 6.59355202 -82.01799583 5.4595356 C-78.02342002 4.97841832 -74.0289643 4.49632119 -70.03460121 4.01344109 C-65.31941168 3.44362047 -60.60388369 2.87668316 -55.88809013 2.31188393 C-54.16637905 2.10524627 -52.44477871 1.89768321 -50.72330475 1.68907928 C-33.63110827 -0.38087153 -17.1847794 -1.79784264 0 0 Z " fill="#482C3D" transform="translate(249.198974609375,153.10546875)"/>
<path d="M0 0 C-0.32613281 0.8971875 -0.65226563 1.794375 -0.98828125 2.71875 C-11.20780109 31.51174848 -11.436412 61.91694574 0.828125 90.05859375 C2 93 2 93 2 96 C-3.65495526 96.71998618 -9.31086521 97.43175274 -14.96777344 98.13623047 C-16.88829809 98.37653797 -18.80855322 98.61901046 -20.72851562 98.86376953 C-23.5032088 99.21709585 -26.27880822 99.56238159 -29.0546875 99.90625 C-29.8998996 100.0156189 -30.74511169 100.12498779 -31.61593628 100.2376709 C-37.53787383 100.96052354 -42.93956401 101 -49 101 C-49 85.16 -49 69.32 -49 53 C-46.03 52.34 -43.06 51.68 -40 51 C-37.67250655 47.50875983 -37.49700684 46.10777749 -38 42 C-39.30861457 39.44014926 -39.30861457 39.44014926 -42 38 C-48.03043679 37.35772327 -54.05368919 38.29967087 -60 39.25 C-71.00598436 40.91886931 -82.04601432 42.24939981 -93.09960938 43.55371094 C-97.0680189 44.0228284 -101.03389865 44.51174983 -105 45 C-105.6639679 45.07611511 -106.32793579 45.15223022 -107.01202393 45.23065186 C-108.94821842 45.45309768 -110.88237675 45.69305023 -112.81640625 45.93359375 C-114.49585327 46.13359985 -114.49585327 46.13359985 -116.20922852 46.33764648 C-119.17119314 47.04063048 -120.28253106 47.51880316 -122 50 C-122.50169583 53.9418958 -122.64737288 56.08888261 -120.3125 59.375 C-117.76658224 61.39622744 -117.76658224 61.39622744 -113 62 C-113 77.51 -113 93.02 -113 109 C-123.12718677 111.25048595 -123.12718677 111.25048595 -126.63916016 111.67016602 C-127.43093658 111.76689102 -128.22271301 111.86361603 -129.03848267 111.96327209 C-130.27626968 112.107136 -130.27626968 112.107136 -131.5390625 112.25390625 C-132.42298676 112.35968491 -133.30691101 112.46546356 -134.21762085 112.57444763 C-136.07792227 112.79591794 -137.93849378 113.01513025 -139.79931641 113.23217773 C-142.5974691 113.55928164 -145.39444502 113.89529915 -148.19140625 114.23242188 C-156.31914955 115.2014558 -164.45506988 116.13095106 -172.61328125 116.8046875 C-173.77126221 116.90378418 -174.92924316 117.00288086 -176.12231445 117.10498047 C-179.20027964 116.99269362 -180.33464261 116.62861599 -182.5625 114.5625 C-195.27011981 94.43876137 -196.00079907 66.0973458 -190.9765625 43.48828125 C-188.63576612 35.12695658 -185.86997146 26.73148097 -179 21 C-176.1701123 19.83444259 -173.41045358 19.6137898 -170.375 19.375 C-169.44155762 19.27348633 -168.50811523 19.17197266 -167.54638672 19.06738281 C-165.33237407 18.82827082 -163.11685558 18.60289211 -160.90039062 18.38769531 C-156.50684121 17.95098046 -152.12099579 17.46175461 -147.734375 16.9609375 C-146.47572632 16.81729263 -146.47572632 16.81729263 -145.19165039 16.67074585 C-143.42079977 16.46849437 -141.6499669 16.26608748 -139.87915039 16.0635376 C-137.07799592 15.74464897 -134.27637048 15.43021022 -131.47460938 15.11669922 C-115.92519326 13.37082213 -100.39899887 11.45796994 -84.875 9.5 C-63.55345197 6.81110072 -42.224804 4.19814786 -20.88040161 1.69692993 C-16.87165711 1.2265158 -16.87165711 1.2265158 -12.8671875 0.72137451 C-8.50875696 0.1520696 -4.38396034 -0.09133251 0 0 Z " fill="#E9E9E9" transform="translate(481,347)"/>
<path d="M0 0 C6.11982572 0.05892855 12.08368544 0.70814694 18.14599609 1.50268555 C19.27333664 1.64447739 20.40067719 1.78626923 21.56217957 1.93235779 C23.9757393 2.23636715 26.38893567 2.54327311 28.80178833 2.85284424 C35.21547604 3.67518534 41.63194321 4.47523806 48.04833984 5.27612305 C49.98286263 5.51821503 49.98286263 5.51821503 51.95646667 5.76519775 C63.54227988 7.20789417 75.14046564 8.51410893 86.74755859 9.7722168 C101.3873006 11.36373212 116.00226173 13.08916965 130.60925293 14.95724487 C146.46964028 16.98272032 162.35423721 18.75540317 178.25341797 20.44799805 C186.96064718 21.38432873 195.60688192 22.32730117 204.18505859 24.1472168 C203.90791016 25.02764648 203.63076172 25.90807617 203.34521484 26.81518555 C202.98298828 27.97663086 202.62076172 29.13807617 202.24755859 30.3347168 C201.88791016 31.48327148 201.52826172 32.63182617 201.15771484 33.81518555 C197.3577556 46.8327166 198.15201066 61.49183726 201.52880859 74.5300293 C202.18505859 77.1472168 202.18505859 77.1472168 202.18505859 80.1472168 C191.53877815 78.94280969 180.89298802 77.73412113 170.24755859 76.5222168 C169.45014252 76.43145119 168.65272644 76.34068558 167.83114624 76.24716949 C147.43808503 73.92505556 127.05269754 71.55934715 106.68505859 69.0222168 C80.88044301 65.80785052 55.03576839 62.96334212 29.18505859 60.1472168 C26.13871728 48.27090067 26.11822135 37.27095373 26.48779297 25.01245117 C26.50519531 23.80266602 26.52259766 22.59288086 26.54052734 21.34643555 C26.56783936 20.25161865 26.59515137 19.15680176 26.62329102 18.02880859 C26.07901246 14.4499118 25.03489137 13.31069904 22.18505859 11.1472168 C18.606298 10.5507567 16.928499 10.66498518 13.87255859 12.6472168 C9.87705162 18.56648639 11.03282896 27.55700486 11.06005859 34.4597168 C11.05619141 35.42844727 11.05232422 36.39717773 11.04833984 37.39526367 C11.05720235 44.03770851 11.50320778 50.53975772 12.18505859 57.1472168 C6.57505859 56.8172168 0.96505859 56.4872168 -4.81494141 56.1472168 C-8.74695611 46.49590799 -10.20483448 37.30659687 -10.18994141 26.8972168 C-10.19050537 25.8973877 -10.19106934 24.89755859 -10.19165039 23.86743164 C-9.83923048 0.00687043 -9.83923048 0.00687043 0 0 Z " fill="#5D5DE9" transform="translate(81.81494140625,197.852783203125)"/>
<path d="M0 0 C10.23616095 0.5787155 20.33481855 1.7171875 30.49584961 3.04110718 C44.83118492 4.90597572 59.16743546 6.60647706 73.55224609 8.04199219 C80.98288112 8.78408774 88.38800078 9.63102394 95.79296875 10.59375 C100.18722568 11.15039156 104.58924282 11.5970943 109 12 C108.15485425 17.70691201 106.61711469 23.1202942 105.03515625 28.66015625 C102.38704408 39.10625856 101.65088546 49.52510703 101.68432617 60.25585938 C101.68748714 62.36641171 101.66391215 64.4755567 101.63867188 66.5859375 C101.58067911 79.18786532 103.87440117 90.72874241 107.44921875 102.828125 C108 105 108 105 108 108 C95.20108622 107.47889496 82.58265282 106.40267757 69.875 104.8125 C68.09658803 104.59487718 66.31810281 104.37785219 64.53955078 104.16137695 C60.73814565 103.69751689 56.93725794 103.22969063 53.13671875 102.75878906 C46.55045913 101.943116 39.96278605 101.13917516 33.375 100.3359375 C21.5825262 98.89717004 9.79100241 97.45077263 -2 96 C-2.63461529 94.43562596 -3.26698327 92.87034017 -3.8984375 91.3046875 C-4.42703369 89.99733643 -4.42703369 89.99733643 -4.96630859 88.66357422 C-9.97118569 75.76720929 -11.3727424 62.96030891 -11.3125 49.1875 C-11.31067719 48.52702667 -11.30885437 47.86655334 -11.30697632 47.18606567 C-11.22638001 29.84420845 -7.83273351 15.54829923 0 0 Z " fill="#FEC939" transform="translate(99,344)"/>
<path d="M0 0 C14.1027963 1.12066787 28.12772752 2.53982815 42.15548706 4.37130737 C60.56093991 6.76896072 78.98597737 8.92809979 97.4375 10.9375 C119.28106556 13.31896456 141.09215472 15.92169002 162.89624023 18.64038086 C165.15477222 18.92181609 167.41331677 19.20315049 169.671875 19.484375 C171.27350243 19.68384483 171.27350243 19.68384483 172.90748596 19.88734436 C181.92984426 21.00464428 190.96062747 22.03076375 200 23 C198.12469781 32.51046113 198.12469781 32.51046113 197.48999023 35.00219727 C196.06333025 40.76661471 195.72396319 46.13772757 195.8125 52.0625 C195.81894531 52.96701904 195.82539063 53.87153809 195.83203125 54.8034668 C195.92318707 62.89710624 196.39659367 70.92944034 197 79 C192.05 78.34 187.1 77.68 182 77 C178.27523391 67.14739292 176.83399345 59.24767663 176.875 48.75 C176.87113281 47.74453125 176.86726562 46.7390625 176.86328125 45.703125 C176.86521484 44.26453125 176.86521484 44.26453125 176.8671875 42.796875 C176.86831543 41.92385742 176.86944336 41.05083984 176.87060547 40.15136719 C177 38 177 38 178 36 C178.13357453 32.32670036 178.1671568 29.50147041 177 26 C171.08394292 24.6917915 171.08394292 24.6917915 165.5625 26.4375 C161.5176034 33.07113043 161.67995928 40.532497 161.75 48.0625 C161.75386719 49.06804932 161.75773438 50.07359863 161.76171875 51.10961914 C161.85511595 59.22414977 162.6578762 67.00493759 164 75 C152.69134035 74.25227681 141.44801436 73.011946 130.1875 71.75 C129.20402588 71.64051025 128.22055176 71.53102051 127.20727539 71.41821289 C112.64819526 69.79532951 98.10885677 68.04667494 83.57781982 66.19061279 C68.00852491 64.20434855 52.41721082 62.45318637 36.81054688 60.78710938 C32.43391774 60.31719263 28.06033875 59.82521459 23.68844604 59.31311035 C21.82390694 59.09595647 19.9587173 58.88434443 18.0930481 58.67712402 C15.19195469 58.34964245 12.29543008 57.994602 9.3984375 57.6328125 C8.50993607 57.53664642 7.62143463 57.44048035 6.70600891 57.34140015 C0.58429945 56.5357676 0.58429945 56.5357676 -2.38085938 53.81689453 C-3.85972388 51.19461796 -4.46306796 48.95725649 -5 46 C-5.22945312 45.13890625 -5.45890625 44.2778125 -5.6953125 43.390625 C-8.5682205 31.09894268 -8.7670012 15.4787572 -2.44213867 4.31176758 C-1.9864299 3.50363113 -1.53072113 2.69549469 -1.061203 1.86286926 C-0.71100601 1.24812241 -0.36080902 0.63337555 0 0 Z " fill="#98DFD3" transform="translate(31,264)"/>
<path d="M0 0 C0.8559375 0.00902344 1.711875 0.01804687 2.59375 0.02734375 C3.2228125 0.03894531 3.851875 0.05054688 4.5 0.0625 C4.2834375 1.08085937 4.066875 2.09921875 3.84375 3.1484375 C0.74998581 18.51083004 0.03858894 32.87193941 4.5 48.0625 C4.71269531 48.83851563 4.92539062 49.61453125 5.14453125 50.4140625 C5.5752326 51.96954506 6.03292233 53.51755078 6.5 55.0625 C3.40690373 56.60904813 0.04969693 56.64771038 -3.3515625 57.0078125 C-5.05860067 57.1959007 -6.76563154 57.38405526 -8.47265625 57.57226562 C-9.38934082 57.67192627 -10.30602539 57.77158691 -11.25048828 57.87426758 C-30.02410607 59.92000833 -48.76521074 62.1895305 -67.5 64.5625 C-85.57835693 66.84983736 -103.66250882 69.03655897 -121.77325439 71.05160522 C-134.9347024 72.51638152 -148.07190374 74.10750443 -161.19360352 75.89526367 C-162.34401123 76.04970947 -163.49441895 76.20415527 -164.6796875 76.36328125 C-166.16057861 76.56691284 -166.16057861 76.56691284 -167.67138672 76.7746582 C-170.63326344 77.07606099 -173.52490315 77.11181861 -176.5 77.0625 C-184.50975453 64.95615346 -184.89708328 50.38840041 -182.8125 36.3125 C-182.40195278 34.5559815 -181.96446219 32.8055379 -181.5 31.0625 C-181.24863281 29.67804688 -181.24863281 29.67804688 -180.9921875 28.265625 C-179.9853179 24.88332518 -179.12483418 23.46394404 -176.5 21.0625 C-173.38710784 20.09579355 -170.24092823 19.77130656 -167.0078125 19.421875 C-166.07161575 19.30507385 -165.13541901 19.18827271 -164.17085266 19.06793213 C-161.28253452 18.71280644 -158.39207577 18.38542329 -155.5 18.0625 C-153.85282743 17.86818971 -152.20576659 17.67292908 -150.55883789 17.4765625 C-146.47988355 16.99749971 -142.39838967 16.54502985 -138.31561279 16.09985352 C-119.97991867 14.09505898 -101.67466195 11.87119974 -83.375 9.5625 C-62.05347869 6.8733975 -40.72480199 4.26064762 -19.38040161 1.75942993 C-15.97968966 1.36006764 -12.58167542 0.94577666 -9.18554688 0.50952148 C-6.06905132 0.13152047 -3.13229858 -0.04350415 0 0 Z " fill="#E9E9E9" transform="translate(479.5,274.9375)"/>
<path d="M0 0 C0.8559375 0.00902344 1.711875 0.01804688 2.59375 0.02734375 C3.2228125 0.03894531 3.851875 0.05054688 4.5 0.0625 C4.2834375 1.05765625 4.066875 2.0528125 3.84375 3.078125 C0.80186743 17.95556492 -0.76403529 33.52862695 4.5 48.0625 C4.90605565 49.45539394 5.303177 50.8509537 5.6875 52.25 C6.0896875 53.6421875 6.0896875 53.6421875 6.5 55.0625 C3.40690534 56.60904733 0.0496962 56.64771514 -3.3515625 57.0078125 C-5.05876374 57.1958979 -6.76595735 57.38405261 -8.47314453 57.57226562 C-9.38984924 57.67192627 -10.30655396 57.77158691 -11.2510376 57.87426758 C-30.06521983 59.92482045 -48.84872507 62.19179142 -67.625 64.5625 C-86.08102384 66.8899692 -104.54063652 69.17227237 -123.01513672 71.34838867 C-124.65983268 71.54213838 -126.30452672 71.73590442 -127.94921875 71.9296875 C-129.14133972 72.07006187 -129.14133972 72.07006187 -130.35754395 72.21327209 C-135.97629105 72.87695372 -141.5921318 73.56238442 -147.20703125 74.2578125 C-148.75138237 74.44833241 -150.29573456 74.63884367 -151.84008789 74.8293457 C-154.68742944 75.1807902 -157.53416024 75.53671896 -160.38061523 75.89526367 C-162.25728882 76.12693237 -162.25728882 76.12693237 -164.171875 76.36328125 C-165.79754395 76.56691284 -165.79754395 76.56691284 -167.45605469 76.7746582 C-170.49070077 77.06162065 -173.45382237 77.11361228 -176.5 77.0625 C-184.50975453 64.95615346 -184.89708328 50.38840041 -182.8125 36.3125 C-182.40195278 34.5559815 -181.96446219 32.8055379 -181.5 31.0625 C-181.24863281 29.67804688 -181.24863281 29.67804688 -180.9921875 28.265625 C-179.9853179 24.88332518 -179.12483418 23.46394404 -176.5 21.0625 C-173.38710784 20.09579355 -170.24092823 19.77130656 -167.0078125 19.421875 C-166.07161575 19.30507385 -165.13541901 19.18827271 -164.17085266 19.06793213 C-161.28253452 18.71280644 -158.39207577 18.38542329 -155.5 18.0625 C-153.85282743 17.86818971 -152.20576659 17.67292908 -150.55883789 17.4765625 C-146.47988355 16.99749971 -142.39838967 16.54502985 -138.31561279 16.09985352 C-119.97991867 14.09505898 -101.67466195 11.87119974 -83.375 9.5625 C-62.05347869 6.8733975 -40.72480199 4.26064762 -19.38040161 1.75942993 C-15.97968966 1.36006764 -12.58167542 0.94577666 -9.18554688 0.50952148 C-6.06905132 0.13152047 -3.13229858 -0.04350415 0 0 Z " fill="#E9E9E9" transform="translate(479.5,202.9375)"/>
<path d="M0 0 C2.70407309 0.32573794 5.40868933 0.6468641 8.11328125 0.96826172 C15.87001366 1.89378431 23.62290715 2.84884205 31.375 3.8125 C32.40153687 3.93985535 33.42807373 4.06721069 34.48571777 4.19842529 C42.02209095 5.13433051 49.55742495 6.07825257 57.09082031 7.0378418 C69.29732244 8.58719078 81.51921501 9.96962199 93.75 11.3125 C125.04193347 14.75993365 125.04193347 14.75993365 137.29864502 16.17578125 C139.17387286 16.39089366 141.04948563 16.60267809 142.92547607 16.81103516 C145.50869044 17.09843945 148.09032165 17.39730969 150.671875 17.69921875 C151.44244232 17.78237839 152.21300964 17.86553802 153.00692749 17.95121765 C154.80615927 18.16798552 156.59344113 18.48042876 158.375 18.8125 C158.705 19.4725 159.035 20.1325 159.375 20.8125 C101.85244382 27.89011284 101.85244382 27.89011284 75.84352112 30.93315125 C70.80660715 31.52319089 65.77162443 32.12734273 60.7375946 32.7414856 C57.45639987 33.13930375 54.17401598 33.52656542 50.89126587 33.91131592 C49.37151473 34.09155348 47.8522521 34.27597345 46.33358765 34.46514893 C37.17410155 35.6031618 28.56059405 35.90778247 19.375 34.8125 C18.22926514 34.68601074 17.08353027 34.55952148 15.90307617 34.42919922 C12.74693698 34.07188452 9.59332177 33.69830045 6.44036865 33.31399536 C2.73448931 32.86273865 -0.97254832 32.42123952 -4.6796875 31.98046875 C-5.8699202 31.83888588 -5.8699202 31.83888588 -7.084198 31.69444275 C-16.01324326 30.63858317 -24.951351 29.66662407 -33.88916016 28.68835449 C-49.96314254 26.92773353 -66.0150599 25.04995735 -82.05496216 23.00228882 C-95.75122567 21.25674217 -109.46269963 19.69111396 -123.1875 18.1875 C-149.08952435 15.33851698 -149.08952435 15.33851698 -158.875 14.125 C-159.79095947 14.01784668 -160.70691895 13.91069336 -161.65063477 13.80029297 C-163.65265676 13.5429678 -165.64217698 13.19028456 -167.625 12.8125 C-167.955 12.1525 -168.285 11.4925 -168.625 10.8125 C-148.66313456 7.97427178 -128.65768184 5.64095959 -108.6184082 3.42468262 C-92.51478869 1.66585421 -92.51478869 1.66585421 -76.45703125 -0.4609375 C-75.1525 -0.64914063 -73.84796875 -0.83734375 -72.50390625 -1.03125 C-70.29424376 -1.36040016 -68.08661109 -1.70395212 -65.8828125 -2.0703125 C-43.98698941 -5.35610225 -21.79562788 -2.70526478 0 0 Z " fill="#6F6EEF" transform="translate(273.625,172.1875)"/>
<path d="M0 0 C-0.32613281 0.8971875 -0.65226563 1.794375 -0.98828125 2.71875 C-11.20780109 31.51174848 -11.436412 61.91694574 0.828125 90.05859375 C2 93 2 93 2 96 C-3.65495526 96.71998618 -9.31086521 97.43175274 -14.96777344 98.13623047 C-16.88829809 98.37653797 -18.80855322 98.61901046 -20.72851562 98.86376953 C-23.5032088 99.21709585 -26.27880822 99.56238159 -29.0546875 99.90625 C-29.8998996 100.0156189 -30.74511169 100.12498779 -31.61593628 100.2376709 C-37.44926241 100.94970732 -43.12294605 101.09175728 -49 101 C-49 95.39 -49 89.78 -49 84 C-47.824375 83.46375 -46.64875 82.9275 -45.4375 82.375 C-36.08839249 77.62624698 -30.25862711 70.62170883 -26.85546875 60.64453125 C-24.90223884 52.3232367 -24.484008 42.64832424 -28.60546875 34.9296875 C-32.73041596 29.22177735 -38.20385485 24.92557446 -45 23 C-54.51616227 22.34019736 -63.95286234 23.63767253 -73.375 24.8125 C-74.7720623 24.98042708 -76.16919781 25.14774631 -77.56640625 25.31445312 C-84.6299556 26.16591784 -91.68164048 27.08765596 -98.72853088 28.06732178 C-112.27457029 29.9493007 -125.84838299 31.52667985 -139.4375 33.0625 C-147.03560703 33.92371635 -154.63265069 34.79276934 -162.2276001 35.681427 C-164.73955821 35.97007296 -167.25266961 36.24143277 -169.76708984 36.50756836 C-171.11172316 36.66068634 -172.45629364 36.81435781 -173.80078125 36.96875 C-174.90719971 37.08798828 -176.01361816 37.20722656 -177.15356445 37.33007812 C-181.96047592 38.46140715 -184.8507714 41.35566072 -188 45 C-188.99428259 46.00568491 -189.99244175 47.00761582 -191 48 C-190.45692026 38.58661789 -187.12845692 29.50715636 -180.75756836 22.45239258 C-177.59643793 19.84014575 -174.35974446 19.68846759 -170.375 19.375 C-169.44155762 19.27348633 -168.50811523 19.17197266 -167.54638672 19.06738281 C-165.33237407 18.82827082 -163.11685558 18.60289211 -160.90039062 18.38769531 C-156.50684121 17.95098046 -152.12099579 17.46175461 -147.734375 16.9609375 C-146.47572632 16.81729263 -146.47572632 16.81729263 -145.19165039 16.67074585 C-143.42079977 16.46849437 -141.6499669 16.26608748 -139.87915039 16.0635376 C-137.07799592 15.74464897 -134.27637048 15.43021022 -131.47460938 15.11669922 C-115.92519326 13.37082213 -100.39899887 11.45796994 -84.875 9.5 C-63.55345197 6.81110072 -42.224804 4.19814786 -20.88040161 1.69692993 C-16.87165711 1.2265158 -16.87165711 1.2265158 -12.8671875 0.72137451 C-8.50875696 0.1520696 -4.38396034 -0.09133251 0 0 Z " fill="#D8D2D2" transform="translate(481,347)"/>
<path d="M0 0 C7.37185221 0.05365249 14.64832995 1.17461285 21.9375 2.1875 C21.31131408 6.02114937 20.15078678 9.21245218 18.5625 12.75 C8.47863146 36.41503253 8.29441241 67.55513307 17.57421875 91.54296875 C18.9375 95.1875 18.9375 95.1875 18.9375 98.1875 C11.6775 97.5275 4.4175 96.8675 -3.0625 96.1875 C-9.93986646 80.08821034 -13.42339344 66.05064602 -13.4375 48.5 C-13.43927246 47.20578125 -13.44104492 45.9115625 -13.44287109 44.578125 C-13.30246434 32.44451314 -12.12047713 20.83413713 -8 9.375 C-7.73123047 8.58802734 -7.46246094 7.80105469 -7.18554688 6.99023438 C-4.77664854 0.03987186 -4.77664854 0.03987186 0 0 Z " fill="#FDC839" transform="translate(261.0625,362.8125)"/>
<path d="M0 0 C1.08925781 0.11730469 2.17851563 0.23460937 3.30078125 0.35546875 C6.76580318 0.82306687 10.22762896 1.30820954 13.6875 1.8125 C13.28917969 2.97523438 12.89085937 4.13796875 12.48046875 5.3359375 C3.179913 33.11453502 2.74011873 59.61683834 8.22998047 88.40869141 C8.7617792 91.20276306 9.23461767 94.00462957 9.6875 96.8125 C-4.55807676 97.26876402 -4.55807676 97.26876402 -8.828125 93.4609375 C-14.37420676 87.10255084 -16.2613764 78.80389066 -18.3125 70.8125 C-18.56128906 69.86890625 -18.81007813 68.9253125 -19.06640625 67.953125 C-23.29782638 47.95004801 -21.50120913 24.34008926 -11.875 6.16015625 C-8.3381153 0.84598699 -6.53113375 -0.77514043 0 0 Z " fill="#FDC839" transform="translate(36.3125,336.1875)"/>
<path d="M0 0 C7.76047949 -0.19720344 15.19409945 0.35390839 22.875 1.4375 C23.88046875 1.57220703 24.8859375 1.70691406 25.921875 1.84570312 C30.31475447 2.44287838 34.65809917 3.09766681 39 4 C38.72285156 4.88042969 38.44570313 5.76085937 38.16015625 6.66796875 C37.79792969 7.82941406 37.43570313 8.99085938 37.0625 10.1875 C36.70285156 11.33605469 36.34320313 12.48460937 35.97265625 13.66796875 C32.17269701 26.6854998 32.96695206 41.34462046 36.34375 54.3828125 C37 57 37 57 37 60 C31.92751153 59.45286628 26.85551837 58.90141323 21.78393555 58.34594727 C20.05847909 58.15758291 18.33289315 57.97040073 16.60717773 57.78442383 C14.12709138 57.51694256 11.64750134 57.24521712 9.16796875 56.97265625 C8.39599655 56.89032242 7.62402435 56.80798859 6.82865906 56.72315979 C3.73687695 56.37984452 0.96112195 55.98704065 -2 55 C-8.42554618 39.55753511 -6.93353348 17.93180813 -1.09375 2.62109375 C-0.7328125 1.75613281 -0.371875 0.89117187 0 0 Z " fill="#98DED2" transform="translate(247,290)"/>
<path d="M0 0 C14.22604435 1.48667593 28.44840683 3.00660829 42.66845703 4.54956055 C45.04888247 4.8073994 47.42941608 5.06424153 49.81005859 5.32006836 C62.98516935 6.73628843 76.13829776 8.2376339 89.27326965 9.98939514 C96.31665408 10.92522725 103.36404095 11.70167861 110.4375 12.375 C129.00183412 14.21473211 147.49739228 16.63003466 166 19 C166.33 18.34 166.66 17.68 167 17 C167.99 24.425 167.99 24.425 169 32 C157.69169449 31.21835905 146.45062466 30.01223853 135.1875 28.75 C134.20402588 28.64051025 133.22055176 28.53102051 132.20727539 28.41821289 C117.64819526 26.79532951 103.10885677 25.04667494 88.57781982 23.19061279 C73.00852491 21.20434855 57.41721082 19.45318637 41.81054688 17.78710938 C37.433616 17.31735423 33.06002065 16.82344227 28.68789673 16.31091309 C26.82441211 16.095361 24.96005198 15.88729681 23.09506226 15.68518066 C20.19571683 15.36696092 17.3013255 15.01881963 14.40625 14.6640625 C13.51879593 14.57208588 12.63134186 14.48010925 11.71699524 14.38534546 C5.5912886 13.5907566 5.5912886 13.5907566 2.55786133 10.56005859 C0.62289523 6.94522615 0 4.08099008 0 0 Z " fill="#5BD0C5" transform="translate(26,307)"/>
<path d="M0 0 C0 22.44 0 44.88 0 68 C-3.39597848 64.60402152 -5.41943822 62.53841201 -7.8125 58.75 C-10.00051751 55.76479782 -11.43965248 54.40638843 -15.125 53.75 C-18.91861185 53.62153645 -18.91861185 53.62153645 -20.98046875 55.59375 C-23.38766069 58.46189359 -25.30106708 61.52926087 -27.1875 64.75 C-28.42972911 66.85570234 -29.69413793 68.93213603 -31 71 C-31.33 71 -31.66 71 -32 71 C-32 48.56 -32 26.12 -32 3 C-10 0 -10 0 0 0 Z " fill="#C0262D" transform="translate(416,403)"/>
<path d="M0 0 C3.33352425 0.31048416 6.66678081 0.62375908 10 0.9375 C10.93457031 1.02451172 11.86914062 1.11152344 12.83203125 1.20117188 C18.23573347 1.71131159 23.61811907 2.2955321 29 3 C28.5959073 7.31032209 28.19198297 11.33978374 26.9765625 15.51953125 C25.52143917 21.18217618 25.7032068 26.87595169 25.75 32.6875 C25.75580078 34.41492432 25.75580078 34.41492432 25.76171875 36.17724609 C25.84122094 43.98281521 26.39285439 51.35258124 28 59 C24.08288672 58.69294194 20.16640839 58.37841166 16.25 58.0625 C15.13882813 57.97548828 14.02765625 57.88847656 12.8828125 57.79882812 C11.81289063 57.71181641 10.74296875 57.62480469 9.640625 57.53515625 C8.65610352 57.456604 7.67158203 57.37805176 6.65722656 57.29711914 C2.10843175 56.78849333 2.10843175 56.78849333 0 56 C-8.72183099 42.91725351 -8.10018479 27.05683415 -5.92578125 12.01171875 C-4.58653848 7.65494163 -2.31465976 3.90811232 0 0 Z " fill="#5D5DE8" transform="translate(31,192)"/>
<path d="M0 0 C8.35394824 0.60059793 16.67616672 1.34291445 25 2.26953125 C26.10348785 2.39058228 27.20697571 2.5116333 28.34390259 2.63635254 C31.89615519 3.02643017 35.44808118 3.41939576 39 3.8125 C42.69230465 4.2191181 46.38467762 4.62511166 50.07705688 5.03105164 C52.53718773 5.30156386 54.9972912 5.57232515 57.45736694 5.84333801 C64.85830462 6.65793916 72.26035461 7.46098717 79.6640625 8.25 C80.53198425 8.34270676 81.39990601 8.43541351 82.29412842 8.53092957 C87.12192479 9.04646049 87.12192479 9.04646049 91.95019531 9.55752563 C94.08419898 9.78247668 96.21790043 10.01011666 98.3515625 10.23828125 C100.11234131 10.4245105 100.11234131 10.4245105 101.90869141 10.61450195 C104.64613749 10.95587199 107.30543762 11.4151998 110 12 C110.33 10.68 110.66 9.36 111 8 C111.67099984 10.60311992 112.33695338 13.20735398 113 15.8125 C113.19078125 16.55048828 113.3815625 17.28847656 113.578125 18.04882812 C114.35262914 21.10535341 115 23.83373478 115 27 C102.20108622 26.47889496 89.58265282 25.40267757 76.875 23.8125 C75.09658803 23.59487718 73.31810281 23.37785219 71.53955078 23.16137695 C67.73814565 22.69751689 63.93725794 22.22969063 60.13671875 21.75878906 C53.55045913 20.943116 46.96278605 20.13917516 40.375 19.3359375 C28.5825262 17.89717004 16.79100241 16.45077263 5 15 C4.34865075 13.43979133 3.70417036 11.87671421 3.0625 10.3125 C2.70285156 9.44238281 2.34320313 8.57226562 1.97265625 7.67578125 C1.0429688 5.11820735 0.45837375 2.6778677 0 0 Z " fill="#F4911E" transform="translate(92,425)"/>
<path d="M0 0 C1.5627962 0.14262412 3.12522696 0.28925511 4.6875 0.4375 C5.99267578 0.55931641 5.99267578 0.55931641 7.32421875 0.68359375 C9.92289271 0.9908822 12.44244733 1.45162384 15 2 C14.60167969 3.16273438 14.20335938 4.32546875 13.79296875 5.5234375 C4.492413 33.30203502 4.05261873 59.80433834 9.54248047 88.59619141 C10.0742792 91.39026306 10.54711767 94.19212957 11 97 C9.60461746 97.05472088 8.20859103 97.09311538 6.8125 97.125 C5.64654297 97.15980469 5.64654297 97.15980469 4.45703125 97.1953125 C1.48212735 96.95883365 -0.40548948 96.50524495 -3 95 C-14.09661106 75.00848643 -14.34559791 43.65582716 -8.98828125 22.125 C-6.55993505 14.44643493 -3.66528478 7.1707461 0 0 Z " fill="#F3911E" transform="translate(67,340)"/>
<path d="M0 0 C4.95 0.33 9.9 0.66 15 1 C13.97583394 5.80570227 12.86546555 10.52978659 11.5 15.25 C8.45708964 26.36398878 7.61197085 37.38473817 7.625 48.875 C7.62421448 49.54243225 7.62342896 50.2098645 7.62261963 50.89752197 C7.64031431 63.55599391 9.22124352 75.65387944 12 88 C12.19110352 88.86657227 12.38220703 89.73314453 12.57910156 90.62597656 C13.04860301 92.75156779 13.52369197 94.87592365 14 97 C4.36503239 97.33224026 4.36503239 97.33224026 0 95 C-1.76263106 92.02141122 -2.73064924 88.85744364 -3.75 85.5625 C-4.04003906 84.70978516 -4.33007812 83.85707031 -4.62890625 82.97851562 C-8.2462657 71.98603747 -9.35113127 61.40686738 -9.31567383 49.89501953 C-9.31252475 47.76672518 -9.33602258 45.63984147 -9.36132812 43.51171875 C-9.41860478 31.28041224 -7.74163513 19.69344962 -3.375 8.1875 C-2.94960937 7.04667969 -2.52421875 5.90585937 -2.0859375 4.73046875 C-1 2 -1 2 0 0 Z " fill="#F4911E" transform="translate(225,359)"/>
<path d="M0 0 C-0.66 2.97 -1.32 5.94 -2 9 C-2.85698486 9.03520752 -3.71396973 9.07041504 -4.59692383 9.10668945 C-16.51372152 9.71574469 -28.27791249 11.18930587 -40.10662842 12.72366333 C-46.32595187 13.52926337 -52.54762784 14.31617104 -58.76953125 15.1015625 C-60.04248047 15.26231766 -61.31542969 15.42307281 -62.62695312 15.58869934 C-76.44712917 17.32362689 -90.28565183 18.88359919 -104.12854004 20.42471313 C-116.49955149 21.80246054 -128.86558825 23.20869712 -141.22265625 24.70703125 C-142.96053406 24.91758904 -142.96053406 24.91758904 -144.73352051 25.13240051 C-150.28709138 25.80661366 -155.83995063 26.48622023 -161.39208984 27.17211914 C-163.37466662 27.41428962 -165.35725084 27.65639914 -167.33984375 27.8984375 C-168.23413589 28.01061111 -169.12842804 28.12278473 -170.04981995 28.23835754 C-174.39791421 28.76641958 -178.60916464 29.12615543 -183 29 C-183.66 30.32 -184.32 31.64 -185 33 C-186.39177292 30.21645416 -185.83141582 28.99637014 -184.875 26.0625 C-183.35754301 23.24758416 -182.15421147 21.38301409 -179.03411865 20.34764099 C-176.52427903 19.89215514 -174.03355561 19.5855516 -171.49609375 19.32421875 C-170.56074295 19.20995544 -169.62539215 19.09569214 -168.66169739 18.97796631 C-165.77649021 18.63055833 -162.88904462 18.31367856 -160 18 C-158.35297471 17.8072516 -156.70615157 17.61276526 -155.05957031 17.41625977 C-150.98044764 16.93559649 -146.89874085 16.48256814 -142.81561279 16.03735352 C-124.47991867 14.03255898 -106.17466195 11.80869974 -87.875 9.5 C-66.55347869 6.8108975 -45.22480199 4.19814762 -23.88040161 1.69692993 C-20.47968966 1.29756764 -17.08167542 0.88327666 -13.68554688 0.44702148 C-9.06882663 -0.1129424 -4.64609969 -0.06452916 0 0 Z " fill="#D6D0D0" transform="translate(484,203)"/>
<path d="M0 0 C-0.66 2.97 -1.32 5.94 -2 9 C-2.85698486 9.03520752 -3.71396973 9.07041504 -4.59692383 9.10668945 C-16.51372152 9.71574469 -28.27791249 11.18930587 -40.10662842 12.72366333 C-46.32595187 13.52926337 -52.54762784 14.31617104 -58.76953125 15.1015625 C-60.04248047 15.26231766 -61.31542969 15.42307281 -62.62695312 15.58869934 C-76.44712917 17.32362689 -90.28565183 18.88359919 -104.12854004 20.42471313 C-116.49955149 21.80246054 -128.86558825 23.20869712 -141.22265625 24.70703125 C-142.96053406 24.91758904 -142.96053406 24.91758904 -144.73352051 25.13240051 C-150.28709138 25.80661366 -155.83995063 26.48622023 -161.39208984 27.17211914 C-163.37466662 27.41428962 -165.35725084 27.65639914 -167.33984375 27.8984375 C-168.23413589 28.01061111 -169.12842804 28.12278473 -170.04981995 28.23835754 C-174.39791421 28.76641958 -178.60916464 29.12615543 -183 29 C-183.66 30.32 -184.32 31.64 -185 33 C-186.39177292 30.21645416 -185.83141582 28.99637014 -184.875 26.0625 C-183.35754301 23.24758416 -182.15421147 21.38301409 -179.03411865 20.34764099 C-176.52427903 19.89215514 -174.03355561 19.5855516 -171.49609375 19.32421875 C-170.56074295 19.20995544 -169.62539215 19.09569214 -168.66169739 18.97796631 C-165.77649021 18.63055833 -162.88904462 18.31367856 -160 18 C-158.35297471 17.8072516 -156.70615157 17.61276526 -155.05957031 17.41625977 C-150.98044764 16.93559649 -146.89874085 16.48256814 -142.81561279 16.03735352 C-124.47991867 14.03255898 -106.17466195 11.80869974 -87.875 9.5 C-66.55347869 6.8108975 -45.22480199 4.19814762 -23.88040161 1.69692993 C-20.47968966 1.29756764 -17.08167542 0.88327666 -13.68554688 0.44702148 C-9.06882663 -0.1129424 -4.64609969 -0.06452916 0 0 Z " fill="#D7D0D1" transform="translate(484,275)"/>
<path d="M0 0 C31.98020447 3.3239538 63.90469599 7.12676192 95.83272099 10.91229641 C101.70788246 11.60875994 107.58327957 12.30321841 113.45873964 12.99715775 C120.57277866 13.83739852 127.6866638 14.6789364 134.80049944 15.52089715 C136.82395336 15.76030085 138.84743465 15.99947198 140.87092209 16.23859215 C144.6254768 16.6825301 148.37989609 17.12759583 152.13427734 17.57299805 C153.23852554 17.70337967 154.34277374 17.83376129 155.48048401 17.96809387 C160.66415881 18.5842489 165.83668763 19.23101852 171 20 C171.33 18.68 171.66 17.36 172 16 C172.99 21.94 172.99 21.94 174 28 C163.35375781 26.79525126 152.70792989 25.58690439 142.0625 24.375 C141.26508392 24.28423439 140.46766785 24.19346878 139.64608765 24.0999527 C119.25302643 21.77783877 98.86763895 19.41213035 78.5 16.875 C52.69538442 13.66063372 26.8507098 10.81612533 1 8 C0.67 5.36 0.34 2.72 0 0 Z " fill="#5A51D3" transform="translate(110,250)"/>
<path d="M0 0 C7.55148635 0.04981192 14.97269601 1.13849367 22.4375 2.1875 C22.1075 4.8275 21.7775 7.4675 21.4375 10.1875 C20.32375 10.455625 19.21 10.72375 18.0625 11 C14.21909049 11.84559019 14.21909049 11.84559019 12.4375 15.1875 C11.29752627 21.61608604 11.28680083 27.98526087 11.3125 34.5 C11.30863281 35.46873047 11.30476563 36.43746094 11.30078125 37.43554688 C11.30964375 44.07799171 11.75564919 50.58004092 12.4375 57.1875 C6.8275 56.8575 1.2175 56.5275 -4.5625 56.1875 C-8.4945147 46.53619119 -9.95239307 37.34688007 -9.9375 26.9375 C-9.93806396 25.9376709 -9.93862793 24.9378418 -9.93920898 23.90771484 C-9.58714777 0.07143925 -9.58714777 0.07143925 0 0 Z " fill="#97DDD1" transform="translate(81.5625,197.8125)"/>
<path d="M0 0 C0.45890625 0.40992188 0.9178125 0.81984375 1.390625 1.2421875 C2.00421875 1.78101563 2.6178125 2.31984375 3.25 2.875 C3.85328125 3.40867187 4.4565625 3.94234375 5.078125 4.4921875 C11.38515926 9.44038917 17.90044682 8.28612929 25.48461914 7.44921875 C27.50211552 7.20053558 29.51894311 6.94638133 31.53515625 6.6875 C32.61325058 6.55432373 33.69134491 6.42114746 34.80210876 6.28393555 C38.22290569 5.86112146 41.64277046 5.43135636 45.0625 5 C48.4858234 4.56885946 51.90930964 4.13943714 55.33360291 3.71606445 C57.45670373 3.45356628 59.5792718 3.18670989 61.70118713 2.91479492 C67.18465797 2.23669113 72.47482247 1.86212702 78 2 C78 6.95 78 11.9 78 17 C71.82954583 18.456752 65.75541559 19.5223198 59.4609375 20.25390625 C58.57701324 20.35968491 57.69308899 20.46546356 56.78237915 20.57444763 C54.92207773 20.79591794 53.06150622 21.01513025 51.20068359 21.23217773 C48.4025309 21.55928164 45.60555498 21.89529915 42.80859375 22.23242188 C34.68085045 23.2014558 26.54493012 24.13095106 18.38671875 24.8046875 C17.22873779 24.90378418 16.07075684 25.00288086 14.87768555 25.10498047 C11.80019035 24.99271077 10.66660384 24.62598769 8.4375 22.5625 C4.74573877 16.81976031 0 6.8570264 0 0 Z " fill="#D8D2D2" transform="translate(290,439)"/>
<path d="M0 0 C3.02106753 0.14184833 6.04179097 0.28835667 9.0625 0.4375 C9.91005859 0.47681641 10.75761719 0.51613281 11.63085938 0.55664062 C16.48000209 0.80003389 21.20628212 1.22598042 26 2 C25.70967339 3.47943027 25.41764321 4.95852623 25.125 6.4375 C24.96257812 7.26121094 24.80015625 8.08492188 24.6328125 8.93359375 C24.28276765 10.62979872 23.91750889 12.32384376 23.48999023 14.00219727 C22.06333025 19.76661471 21.72396319 25.13772757 21.8125 31.0625 C21.81894531 31.96701904 21.82539063 32.87153809 21.83203125 33.8034668 C21.92318707 41.89710624 22.39659367 49.92944034 23 58 C18.05 57.34 13.1 56.68 8 56 C4.27523391 46.14739292 2.83399345 38.24767663 2.875 27.75 C2.87113281 26.74453125 2.86726562 25.7390625 2.86328125 24.703125 C2.86457031 23.7440625 2.86585938 22.785 2.8671875 21.796875 C2.86887939 20.48734863 2.86887939 20.48734863 2.87060547 19.15136719 C3 17 3 17 4 15 C4.13357453 11.32670036 4.1671568 8.50147041 3 5 C2.01 4.67 1.02 4.34 0 4 C0 2.68 0 1.36 0 0 Z " fill="#6F6FEF" transform="translate(205,285)"/>
<path d="M0 0 C0.88902919 16.47173533 -3.33665834 30.09410005 -14.4140625 42.4609375 C-21.15228426 49 -21.15228426 49 -24 49 C-24 33.49 -24 17.98 -24 2 C-7.125 -0.25 -7.125 -0.25 0 0 Z " fill="#EB1C24" transform="translate(408,404)"/>
<path d="M0 0 C4.30527485 0.4062229 8.6102715 0.81525088 12.91503906 1.22680664 C14.37753197 1.36623786 15.8400964 1.50492108 17.30273438 1.64282227 C19.41295609 1.84191335 21.5229004 2.04375093 23.6328125 2.24609375 C24.90012207 2.36654053 26.16743164 2.4869873 27.47314453 2.61108398 C30.67706288 2.96438884 33.82752485 3.43424905 37 4 C37.33 3.01 37.66 2.02 38 1 C38.50377768 3.26999825 39.00290019 5.54103003 39.5 7.8125 C39.7784375 9.07707031 40.056875 10.34164063 40.34375 11.64453125 C41 15 41 15 41 18 C35.92751153 17.45286628 30.85551837 16.90141323 25.78393555 16.34594727 C24.05847909 16.15758291 22.33289315 15.97040073 20.60717773 15.78442383 C18.12709138 15.51694256 15.64750134 15.24521712 13.16796875 14.97265625 C12.39599655 14.89032242 11.62402435 14.80798859 10.82865906 14.72315979 C7.73687695 14.37984452 4.96112195 13.98704065 2 13 C1.34 8.71 0.68 4.42 0 0 Z " fill="#5BCFC4" transform="translate(243,332)"/>
<path d="M0 0 C8.13544686 -0.28545428 15.97649696 0.81603117 24 2 C24.67184618 4.10251861 25.33730968 6.20707763 26 8.3125 C26.37125 9.48425781 26.7425 10.65601563 27.125 11.86328125 C28 15 28 15 28 18 C20.74 17.34 13.48 16.68 6 16 C5.01 13.545625 4.02 11.09125 3 8.5625 C2.68675781 7.78849854 2.37351563 7.01449707 2.05078125 6.21704102 C0 1.11111111 0 1.11111111 0 0 Z " fill="#F3911E" transform="translate(252,443)"/>
<path d="M0 0 C10.395 0.99 10.395 0.99 21 2 C21.33 1.34 21.66 0.68 22 0 C22.50588147 1.91512272 23.00448391 3.83216922 23.5 5.75 C23.7784375 6.81734375 24.056875 7.8846875 24.34375 8.984375 C25 12 25 12 25 16 C12.31145702 16.40639462 12.31145702 16.40639462 8 14 C3.80843594 9.5963327 1.95103961 5.85311882 0 0 Z " fill="#F2901F" transform="translate(21,417)"/>
<path d="M0 0 C0.33 0 0.66 0 1 0 C1.12117187 0.68964844 1.24234375 1.37929688 1.3671875 2.08984375 C2.43859906 8.09799013 3.63482823 14.05175157 5 20 C-4.4010989 20.32417582 -4.4010989 20.32417582 -9 18 C-10.28820979 15.33370532 -11.11902794 13.18141682 -11.875 10.375 C-12.19210938 9.31539063 -12.19210938 9.31539063 -12.515625 8.234375 C-13.03244486 6.49598092 -13.51921316 4.74870259 -14 3 C-7.07 3.495 -7.07 3.495 0 4 C0 2.68 0 1.36 0 0 Z " fill="#EC5924" transform="translate(234,436)"/>
<path d="M0 0 C0.33 0 0.66 0 1 0 C1.495 7.92 1.495 7.92 2 16 C-5.425 15.01 -5.425 15.01 -13 14 C-16.22265625 5.6015625 -16.22265625 5.6015625 -17 3 C-16.67 2.34 -16.34 1.68 -16 1 C-10.72 1.66 -5.44 2.32 0 3 C0 2.01 0 1.02 0 0 Z " fill="#5756D7" transform="translate(226,327)"/>
<path d="M0 0 C4.23047685 0.4467269 8.45906184 0.90940173 12.6875 1.375 C13.88568359 1.50132812 15.08386719 1.62765625 16.31835938 1.7578125 C18.05375977 1.95117188 18.05375977 1.95117188 19.82421875 2.1484375 C21.41882935 2.32125244 21.41882935 2.32125244 23.0456543 2.49755859 C25.99168427 2.99858576 28.3556752 3.60492259 31 5 C31.8125 8.125 31.8125 8.125 32 11 C28.08288672 10.69294194 24.16640839 10.37841166 20.25 10.0625 C19.13882813 9.97548828 18.02765625 9.88847656 16.8828125 9.79882812 C15.81289063 9.71181641 14.74296875 9.62480469 13.640625 9.53515625 C12.65610352 9.456604 11.67158203 9.37805176 10.65722656 9.29711914 C5.89874898 8.76504755 5.89874898 8.76504755 4 8 C2.734375 6.15234375 2.734375 6.15234375 1.75 3.9375 C1.41484375 3.20402344 1.0796875 2.47054687 0.734375 1.71484375 C0.49203125 1.14894531 0.2496875 0.58304688 0 0 Z " fill="#5A51D4" transform="translate(27,240)"/>
<path d="M0 0 C0.33 0 0.66 0 1 0 C1.50588147 1.91512272 2.00448391 3.83216922 2.5 5.75 C2.7784375 6.81734375 3.056875 7.8846875 3.34375 8.984375 C4 12 4 12 4 16 C2.60461746 16.05472088 1.20859103 16.09311538 -0.1875 16.125 C-1.35345703 16.15980469 -1.35345703 16.15980469 -2.54296875 16.1953125 C-5.54140913 15.95696271 -7.40369018 15.55778589 -10 14 C-11.36328125 10.9609375 -11.36328125 10.9609375 -12.3125 7.375 C-12.63863281 6.18648438 -12.96476562 4.99796875 -13.30078125 3.7734375 C-13.53152344 2.85820312 -13.76226562 1.94296875 -14 1 C-9.1666528 0.91666643 -4.76307437 1.04738513 0 2 C0 1.34 0 0.68 0 0 Z " fill="#EC5924" transform="translate(74,421)"/>
<path d="M0 0 C2.25028329 0.14139481 4.50022206 0.28828003 6.75 0.4375 C8.62945312 0.55931641 8.62945312 0.55931641 10.546875 0.68359375 C13.18317553 0.92515522 15.48037294 1.24283934 18 2 C18.33 4.31 18.66 6.62 19 9 C13.39 8.67 7.78 8.34 2 8 C0 4 0 4 0 0 Z " fill="#5BCCC1" transform="translate(75,246)"/>
</svg>
